<svg id="Capa_1" data-name="Capa 1" xmlns="http://www.w3.org/2000/svg" viewBox="0 0 261.447 269.617"><defs><style>.cls-1,.cls-2,.cls-3{stroke:#000;stroke-miterlimit:10;stroke-width:4px;}.cls-2{fill:#ea5b62;}.cls-3{fill:#a02a35;}</style></defs><title>boton_rojo</title><circle class="cls-1" cx="123.721" cy="144.935" r="115.259"/><circle class="cls-2" cx="133.496" cy="131.426" r="115.259"/><path class="cls-1" d="M229.687,146.328c0-44.623-41.494-111.465-86.117-111.465-14.688,0-13.266-12.4-25.134-5.551-8.4,4.848-40.846,37.287-46.988,44.72a80.8,80.8,0,0,0,109.678,116.9C201.385,176.254,229.687,146.328,229.687,146.328Z"/><path class="cls-3" d="M88.851,195.064a80.83,80.83,0,0,0,92.275-1.7c20.259-14.681,48.561-44.607,48.561-44.607,0-25.449-27.434-8.616-47.31-32Z"/><circle class="cls-2" cx="171.681" cy="90.084" r="80.798"/></svg>