<svg width="53" height="51" viewBox="0 0 53 51" fill="none" xmlns="http://www.w3.org/2000/svg">
<path d="M52.6022 33.2803H50.9622V34.8803H52.6022V33.2803Z" fill="black"/>
<path d="M52.6022 31.7207H50.9622V33.3207H52.6022V31.7207Z" fill="black"/>
<path d="M52.6022 30.1206H50.9622V31.7206H52.6022V30.1206Z" fill="black"/>
<path d="M52.6022 28.5205H50.9622V30.1205H52.6022V28.5205Z" fill="black"/>
<path d="M52.6022 26.9604H50.9622V28.5605H52.6022V26.9604Z" fill="black"/>
<path d="M52.6022 25.3604H50.9622V26.9604H52.6022V25.3604Z" fill="black"/>
<path d="M52.6022 23.8003H50.9622V25.4003H52.6022V23.8003Z" fill="black"/>
<path d="M52.6022 22.2007H50.9622V23.8007H52.6022V22.2007Z" fill="black"/>
<path d="M52.6022 20.6001H50.9622V22.2001H52.6022V20.6001Z" fill="black"/>
<path d="M52.6022 19.0405H50.9622V20.6406H52.6022V19.0405Z" fill="black"/>
<path d="M52.6022 17.4399H50.9622V19.04H52.6022V17.4399Z" fill="black"/>
<path d="M52.6022 15.8403H50.9622V17.4404H52.6022V15.8403Z" fill="black"/>
<path d="M50.962 33.2803H49.322V34.8803H50.962V33.2803Z" fill="black"/>
<path d="M50.962 31.7207H49.322V33.3207H50.962V31.7207Z" fill="black"/>
<path d="M50.962 30.1206H49.322V31.7206H50.962V30.1206Z" fill="black"/>
<path d="M50.962 28.5205H49.322V30.1205H50.962V28.5205Z" fill="black"/>
<path d="M50.962 26.9604H49.322V28.5605H50.962V26.9604Z" fill="black"/>
<path d="M50.962 25.3604H49.322V26.9604H50.962V25.3604Z" fill="black"/>
<path d="M50.962 23.8003H49.322V25.4003H50.962V23.8003Z" fill="black"/>
<path d="M50.962 22.2007H49.322V23.8007H50.962V22.2007Z" fill="black"/>
<path d="M50.962 20.6001H49.322V22.2001H50.962V20.6001Z" fill="black"/>
<path d="M50.962 19.0405H49.322V20.6406H50.962V19.0405Z" fill="black"/>
<path d="M50.962 17.4399H49.322V19.04H50.962V17.4399Z" fill="black"/>
<path d="M50.962 15.8403H49.322V17.4404H50.962V15.8403Z" fill="black"/>
<path d="M49.3622 39.6406H47.7222V41.2407H49.3622V39.6406Z" fill="black"/>
<path d="M49.3622 38.041H47.7222V39.641H49.3622V38.041Z" fill="black"/>
<path d="M49.3622 36.4805H47.7222V38.0805H49.3622V36.4805Z" fill="black"/>
<path d="M49.3622 34.8809H47.7222V36.4809H49.3622V34.8809Z" fill="black"/>
<path d="M49.3622 33.2803H47.7222V34.8803H49.3622V33.2803Z" fill="#DAFF29"/>
<path d="M49.3622 31.7207H47.7222V33.3207H49.3622V31.7207Z" fill="#DAFF29"/>
<path d="M49.3622 30.1206H47.7222V31.7206H49.3622V30.1206Z" fill="#DAFF29"/>
<path d="M49.3622 28.5205H47.7222V30.1205H49.3622V28.5205Z" fill="#DAFF29"/>
<path d="M49.3622 26.9604H47.7222V28.5605H49.3622V26.9604Z" fill="#DAFF29"/>
<path d="M49.3622 25.3604H47.7222V26.9604H49.3622V25.3604Z" fill="#DAFF29"/>
<path d="M49.3622 23.8003H47.7222V25.4003H49.3622V23.8003Z" fill="#DAFF29"/>
<path d="M49.3622 22.2007H47.7222V23.8007H49.3622V22.2007Z" fill="#DAFF29"/>
<path d="M49.3622 20.6001H47.7222V22.2001H49.3622V20.6001Z" fill="#DAFF29"/>
<path d="M49.3622 19.0405H47.7222V20.6406H49.3622V19.0405Z" fill="#DAFF29"/>
<path d="M49.3622 17.4399H47.7222V19.04H49.3622V17.4399Z" fill="#DAFF29"/>
<path d="M49.3622 15.8403H47.7222V17.4404H49.3622V15.8403Z" fill="#DAFF29"/>
<path d="M49.3622 14.2803H47.7222V15.8803H49.3622V14.2803Z" fill="black"/>
<path d="M49.3622 12.6802H47.7222V14.2802H49.3622V12.6802Z" fill="black"/>
<path d="M49.3622 11.0801H47.7222V12.6801H49.3622V11.0801Z" fill="black"/>
<path d="M49.3622 9.52051H47.7222V11.1205H49.3622V9.52051Z" fill="black"/>
<path d="M47.7221 39.6406H46.082V41.2407H47.7221V39.6406Z" fill="black"/>
<path d="M47.7221 38.041H46.082V39.641H47.7221V38.041Z" fill="black"/>
<path d="M47.7221 36.4805H46.082V38.0805H47.7221V36.4805Z" fill="black"/>
<path d="M47.7221 34.8809H46.082V36.4809H47.7221V34.8809Z" fill="black"/>
<path d="M47.7221 33.2803H46.082V34.8803H47.7221V33.2803Z" fill="#DAFF29"/>
<path d="M47.7221 31.7207H46.082V33.3207H47.7221V31.7207Z" fill="#DAFF29"/>
<path d="M47.7221 30.1206H46.082V31.7206H47.7221V30.1206Z" fill="#DAFF29"/>
<path d="M47.7221 28.5205H46.082V30.1205H47.7221V28.5205Z" fill="#DAFF29"/>
<path d="M47.7221 26.9604H46.082V28.5605H47.7221V26.9604Z" fill="#DAFF29"/>
<path d="M47.7221 25.3604H46.082V26.9604H47.7221V25.3604Z" fill="#DAFF29"/>
<path d="M47.7221 23.8003H46.082V25.4003H47.7221V23.8003Z" fill="#DAFF29"/>
<path d="M47.7221 22.2007H46.082V23.8007H47.7221V22.2007Z" fill="#DAFF29"/>
<path d="M47.7221 20.6001H46.082V22.2001H47.7221V20.6001Z" fill="#DAFF29"/>
<path d="M47.7221 19.0405H46.082V20.6406H47.7221V19.0405Z" fill="#DAFF29"/>
<path d="M47.7221 17.4399H46.082V19.04H47.7221V17.4399Z" fill="#DAFF29"/>
<path d="M47.7221 15.8403H46.082V17.4404H47.7221V15.8403Z" fill="#DAFF29"/>
<path d="M47.7221 14.2803H46.082V15.8803H47.7221V14.2803Z" fill="black"/>
<path d="M47.7221 12.6802H46.082V14.2802H47.7221V12.6802Z" fill="black"/>
<path d="M47.7221 11.0801H46.082V12.6801H47.7221V11.0801Z" fill="black"/>
<path d="M47.7221 9.52051H46.082V11.1205H47.7221V9.52051Z" fill="black"/>
<path d="M46.0822 42.8008H44.4421V44.4008H46.0822V42.8008Z" fill="black"/>
<path d="M46.0822 41.2407H44.4421V42.8408H46.0822V41.2407Z" fill="black"/>
<path d="M46.0822 39.6406H44.4421V41.2407H46.0822V39.6406Z" fill="#DAFF29"/>
<path d="M46.0822 38.041H44.4421V39.641H46.0822V38.041Z" fill="#DAFF29"/>
<path d="M46.0822 36.4805H44.4421V38.0805H46.0822V36.4805Z" fill="#DAFF29"/>
<path d="M46.0822 34.8809H44.4421V36.4809H46.0822V34.8809Z" fill="#DAFF29"/>
<path d="M46.0822 33.2803H44.4421V34.8803H46.0822V33.2803Z" fill="#A7BC11"/>
<path d="M46.0822 31.7207H44.4421V33.3207H46.0822V31.7207Z" fill="#A7BC11"/>
<path d="M46.0822 30.1206H44.4421V31.7206H46.0822V30.1206Z" fill="#A7BC11"/>
<path d="M46.0822 28.5205H44.4421V30.1205H46.0822V28.5205Z" fill="#A7BC11"/>
<path d="M46.0822 26.9604H44.4421V28.5605H46.0822V26.9604Z" fill="#A7BC11"/>
<path d="M46.0822 25.3604H44.4421V26.9604H46.0822V25.3604Z" fill="#A7BC11"/>
<path d="M46.0822 23.8003H44.4421V25.4003H46.0822V23.8003Z" fill="#A7BC11"/>
<path d="M46.0822 22.2007H44.4421V23.8007H46.0822V22.2007Z" fill="#A7BC11"/>
<path d="M46.0822 20.6001H44.4421V22.2001H46.0822V20.6001Z" fill="#A7BC11"/>
<path d="M46.0822 19.0405H44.4421V20.6406H46.0822V19.0405Z" fill="#A7BC11"/>
<path d="M46.0822 17.4399H44.4421V19.04H46.0822V17.4399Z" fill="#A7BC11"/>
<path d="M46.0822 15.8403H44.4421V17.4404H46.0822V15.8403Z" fill="#A7BC11"/>
<path d="M46.0822 14.2803H44.4421V15.8803H46.0822V14.2803Z" fill="#DAFF29"/>
<path d="M46.0822 12.6802H44.4421V14.2802H46.0822V12.6802Z" fill="#DAFF29"/>
<path d="M46.0822 11.0801H44.4421V12.6801H46.0822V11.0801Z" fill="#DAFF29"/>
<path d="M46.0822 9.52051H44.4421V11.1205H46.0822V9.52051Z" fill="#DAFF29"/>
<path d="M46.0822 7.91992H44.4421V9.51995H46.0822V7.91992Z" fill="black"/>
<path d="M46.0822 6.36035H44.4421V7.96038H46.0822V6.36035Z" fill="black"/>
<path d="M44.442 42.8008H42.802V44.4008H44.442V42.8008Z" fill="black"/>
<path d="M44.442 41.2407H42.802V42.8408H44.442V41.2407Z" fill="black"/>
<path d="M44.442 39.6406H42.802V41.2407H44.442V39.6406Z" fill="#DAFF29"/>
<path d="M44.442 38.041H42.802V39.641H44.442V38.041Z" fill="#DAFF29"/>
<path d="M44.442 36.4805H42.802V38.0805H44.442V36.4805Z" fill="#DAFF29"/>
<path d="M44.442 34.8809H42.802V36.4809H44.442V34.8809Z" fill="#DAFF29"/>
<path d="M44.442 33.2803H42.802V34.8803H44.442V33.2803Z" fill="#A7BC11"/>
<path d="M44.442 31.7207H42.802V33.3207H44.442V31.7207Z" fill="#A7BC11"/>
<path d="M44.442 30.1206H42.802V31.7206H44.442V30.1206Z" fill="#A7BC11"/>
<path d="M44.442 28.5205H42.802V30.1205H44.442V28.5205Z" fill="#A7BC11"/>
<path d="M44.442 26.9604H42.802V28.5605H44.442V26.9604Z" fill="#A7BC11"/>
<path d="M44.442 25.3604H42.802V26.9604H44.442V25.3604Z" fill="#A7BC11"/>
<path d="M44.442 23.8003H42.802V25.4003H44.442V23.8003Z" fill="#A7BC11"/>
<path d="M44.442 22.2007H42.802V23.8007H44.442V22.2007Z" fill="#A7BC11"/>
<path d="M44.442 20.6001H42.802V22.2001H44.442V20.6001Z" fill="#A7BC11"/>
<path d="M44.442 19.0405H42.802V20.6406H44.442V19.0405Z" fill="#A7BC11"/>
<path d="M44.442 17.4399H42.802V19.04H44.442V17.4399Z" fill="#A7BC11"/>
<path d="M44.442 15.8403H42.802V17.4404H44.442V15.8403Z" fill="#A7BC11"/>
<path d="M44.442 14.2803H42.802V15.8803H44.442V14.2803Z" fill="#DAFF29"/>
<path d="M44.442 12.6802H42.802V14.2802H44.442V12.6802Z" fill="#DAFF29"/>
<path d="M44.442 11.0801H42.802V12.6801H44.442V11.0801Z" fill="#DAFF29"/>
<path d="M44.442 9.52051H42.802V11.1205H44.442V9.52051Z" fill="#DAFF29"/>
<path d="M44.442 7.91992H42.802V9.51995H44.442V7.91992Z" fill="black"/>
<path d="M44.442 6.36035H42.802V7.96038H44.442V6.36035Z" fill="black"/>
<path d="M42.8419 46.001H41.2019V47.601H42.8419V46.001Z" fill="black"/>
<path d="M42.8419 44.4009H41.2019V46.0009H42.8419V44.4009Z" fill="black"/>
<path d="M42.8419 42.8008H41.2019V44.4008H42.8419V42.8008Z" fill="#DAFF29"/>
<path d="M42.8419 41.2407H41.2019V42.8408H42.8419V41.2407Z" fill="#DAFF29"/>
<path d="M42.8419 39.6406H41.2019V41.2407H42.8419V39.6406Z" fill="#A7BC11"/>
<path d="M42.8419 38.041H41.2019V39.641H42.8419V38.041Z" fill="#A7BC11"/>
<path d="M42.8419 36.4805H41.2019V38.0805H42.8419V36.4805Z" fill="#A7BC11"/>
<path d="M42.8419 34.8809H41.2019V36.4809H42.8419V34.8809Z" fill="#A7BC11"/>
<path d="M42.8419 33.2803H41.2019V34.8803H42.8419V33.2803Z" fill="#DAFF29"/>
<path d="M42.8419 31.7207H41.2019V33.3207H42.8419V31.7207Z" fill="#DAFF29"/>
<path d="M42.8419 30.1206H41.2019V31.7206H42.8419V30.1206Z" fill="#DAFF29"/>
<path d="M42.8419 28.5205H41.2019V30.1205H42.8419V28.5205Z" fill="#DAFF29"/>
<path d="M42.8419 26.9604H41.2019V28.5605H42.8419V26.9604Z" fill="#DAFF29"/>
<path d="M42.8419 25.3604H41.2019V26.9604H42.8419V25.3604Z" fill="#DAFF29"/>
<path d="M42.8419 23.8003H41.2019V25.4003H42.8419V23.8003Z" fill="#DAFF29"/>
<path d="M42.8419 22.2007H41.2019V23.8007H42.8419V22.2007Z" fill="#DAFF29"/>
<path d="M42.8419 20.6001H41.2019V22.2001H42.8419V20.6001Z" fill="#DAFF29"/>
<path d="M42.8419 19.0405H41.2019V20.6406H42.8419V19.0405Z" fill="#DAFF29"/>
<path d="M42.8419 17.4399H41.2019V19.04H42.8419V17.4399Z" fill="#DAFF29"/>
<path d="M42.8419 15.8403H41.2019V17.4404H42.8419V15.8403Z" fill="#DAFF29"/>
<path d="M42.8419 14.2803H41.2019V15.8803H42.8419V14.2803Z" fill="#A7BC11"/>
<path d="M42.8419 12.6802H41.2019V14.2802H42.8419V12.6802Z" fill="#A7BC11"/>
<path d="M42.8419 11.0801H41.2019V12.6801H42.8419V11.0801Z" fill="#A7BC11"/>
<path d="M42.8419 9.52051H41.2019V11.1205H42.8419V9.52051Z" fill="#A7BC11"/>
<path d="M42.8419 7.91992H41.2019V9.51995H42.8419V7.91992Z" fill="#DAFF29"/>
<path d="M42.8419 6.36035H41.2019V7.96038H42.8419V6.36035Z" fill="#DAFF29"/>
<path d="M42.8419 4.75977H41.2019V6.35979H42.8419V4.75977Z" fill="black"/>
<path d="M42.8419 3.16016H41.2019V4.76018H42.8419V3.16016Z" fill="black"/>
<path d="M41.202 46.001H39.562V47.601H41.202V46.001Z" fill="black"/>
<path d="M41.202 44.4009H39.562V46.0009H41.202V44.4009Z" fill="black"/>
<path d="M41.202 42.8008H39.562V44.4008H41.202V42.8008Z" fill="#DAFF29"/>
<path d="M41.202 41.2407H39.562V42.8408H41.202V41.2407Z" fill="#DAFF29"/>
<path d="M41.202 39.6406H39.562V41.2407H41.202V39.6406Z" fill="#A7BC11"/>
<path d="M41.202 38.041H39.562V39.641H41.202V38.041Z" fill="#A7BC11"/>
<path d="M41.202 36.4805H39.562V38.0805H41.202V36.4805Z" fill="#A7BC11"/>
<path d="M41.202 34.8809H39.562V36.4809H41.202V34.8809Z" fill="#A7BC11"/>
<path d="M41.202 33.2803H39.562V34.8803H41.202V33.2803Z" fill="#DAFF29"/>
<path d="M41.202 31.7207H39.562V33.3207H41.202V31.7207Z" fill="#DAFF29"/>
<path d="M41.202 30.1206H39.562V31.7206H41.202V30.1206Z" fill="#DAFF29"/>
<path d="M41.202 28.5205H39.562V30.1205H41.202V28.5205Z" fill="#DAFF29"/>
<path d="M41.202 26.9604H39.562V28.5605H41.202V26.9604Z" fill="#DAFF29"/>
<path d="M41.202 25.3604H39.562V26.9604H41.202V25.3604Z" fill="#DAFF29"/>
<path d="M41.202 23.8003H39.562V25.4003H41.202V23.8003Z" fill="#DAFF29"/>
<path d="M41.202 22.2007H39.562V23.8007H41.202V22.2007Z" fill="#DAFF29"/>
<path d="M41.202 20.6001H39.562V22.2001H41.202V20.6001Z" fill="#DAFF29"/>
<path d="M41.202 19.0405H39.562V20.6406H41.202V19.0405Z" fill="#DAFF29"/>
<path d="M41.202 17.4399H39.562V19.04H41.202V17.4399Z" fill="#DAFF29"/>
<path d="M41.202 15.8403H39.562V17.4404H41.202V15.8403Z" fill="#DAFF29"/>
<path d="M41.202 14.2803H39.562V15.8803H41.202V14.2803Z" fill="#A7BC11"/>
<path d="M41.202 12.6802H39.562V14.2802H41.202V12.6802Z" fill="#A7BC11"/>
<path d="M41.202 11.0801H39.562V12.6801H41.202V11.0801Z" fill="#A7BC11"/>
<path d="M41.202 9.52051H39.562V11.1205H41.202V9.52051Z" fill="#A7BC11"/>
<path d="M41.202 7.91992H39.562V9.51995H41.202V7.91992Z" fill="#DAFF29"/>
<path d="M41.202 6.36035H39.562V7.96038H41.202V6.36035Z" fill="#DAFF29"/>
<path d="M41.202 4.75977H39.562V6.35979H41.202V4.75977Z" fill="black"/>
<path d="M41.202 3.16016H39.562V4.76018H41.202V3.16016Z" fill="black"/>
<path d="M39.5619 46.001H37.9219V47.601H39.5619V46.001Z" fill="black"/>
<path d="M39.5619 44.4009H37.9219V46.0009H39.5619V44.4009Z" fill="black"/>
<path d="M39.5619 42.8008H37.9219V44.4008H39.5619V42.8008Z" fill="#DAFF29"/>
<path d="M39.5619 41.2407H37.9219V42.8408H39.5619V41.2407Z" fill="#DAFF29"/>
<path d="M39.5619 39.6406H37.9219V41.2407H39.5619V39.6406Z" fill="#A7BC11"/>
<path d="M39.5619 38.041H37.9219V39.641H39.5619V38.041Z" fill="#A7BC11"/>
<path d="M39.5619 36.4805H37.9219V38.0805H39.5619V36.4805Z" fill="#DAFF29"/>
<path d="M39.5619 34.8809H37.9219V36.4809H39.5619V34.8809Z" fill="#DAFF29"/>
<path d="M39.5619 33.2803H37.9219V34.8803H39.5619V33.2803Z" fill="#DAFF29"/>
<path d="M39.5619 31.7207H37.9219V33.3207H39.5619V31.7207Z" fill="#DAFF29"/>
<path d="M39.5619 30.1206H37.9219V31.7206H39.5619V30.1206Z" fill="#DAFF29"/>
<path d="M39.5619 28.5205H37.9219V30.1205H39.5619V28.5205Z" fill="#DAFF29"/>
<path d="M39.5619 26.9604H37.9219V28.5605H39.5619V26.9604Z" fill="#DAFF29"/>
<path d="M39.5619 25.3604H37.9219V26.9604H39.5619V25.3604Z" fill="#DAFF29"/>
<path d="M39.5619 23.8003H37.9219V25.4003H39.5619V23.8003Z" fill="#DAFF29"/>
<path d="M39.5619 22.2007H37.9219V23.8007H39.5619V22.2007Z" fill="#DAFF29"/>
<path d="M39.5619 20.6001H37.9219V22.2001H39.5619V20.6001Z" fill="#DAFF29"/>
<path d="M39.5619 19.0405H37.9219V20.6406H39.5619V19.0405Z" fill="#DAFF29"/>
<path d="M39.5619 17.4399H37.9219V19.04H39.5619V17.4399Z" fill="#DAFF29"/>
<path d="M39.5619 15.8403H37.9219V17.4404H39.5619V15.8403Z" fill="#DAFF29"/>
<path d="M39.5619 14.2803H37.9219V15.8803H39.5619V14.2803Z" fill="#DAFF29"/>
<path d="M39.5619 12.6802H37.9219V14.2802H39.5619V12.6802Z" fill="#DAFF29"/>
<path d="M39.5619 11.0801H37.9219V12.6801H39.5619V11.0801Z" fill="white"/>
<path d="M39.5619 9.52051H37.9219V11.1205H39.5619V9.52051Z" fill="white"/>
<path d="M39.5619 7.91992H37.9219V9.51995H39.5619V7.91992Z" fill="#DAFF29"/>
<path d="M39.5619 6.36035H37.9219V7.96038H39.5619V6.36035Z" fill="#DAFF29"/>
<path d="M39.5619 4.75977H37.9219V6.35979H39.5619V4.75977Z" fill="black"/>
<path d="M39.5619 3.16016H37.9219V4.76018H39.5619V3.16016Z" fill="black"/>
<path d="M37.922 46.001H36.282V47.601H37.922V46.001Z" fill="black"/>
<path d="M37.922 44.4009H36.282V46.0009H37.922V44.4009Z" fill="black"/>
<path d="M37.922 42.8008H36.282V44.4008H37.922V42.8008Z" fill="#DAFF29"/>
<path d="M37.922 41.2407H36.282V42.8408H37.922V41.2407Z" fill="#DAFF29"/>
<path d="M37.922 39.6406H36.282V41.2407H37.922V39.6406Z" fill="#A7BC11"/>
<path d="M37.922 38.041H36.282V39.641H37.922V38.041Z" fill="#A7BC11"/>
<path d="M37.922 36.4805H36.282V38.0805H37.922V36.4805Z" fill="#DAFF29"/>
<path d="M37.922 34.8809H36.282V36.4809H37.922V34.8809Z" fill="#DAFF29"/>
<path d="M37.922 33.2803H36.282V34.8803H37.922V33.2803Z" fill="#DAFF29"/>
<path d="M37.922 31.7207H36.282V33.3207H37.922V31.7207Z" fill="#DAFF29"/>
<path d="M37.922 30.1206H36.282V31.7206H37.922V30.1206Z" fill="#DAFF29"/>
<path d="M37.922 28.5205H36.282V30.1205H37.922V28.5205Z" fill="#DAFF29"/>
<path d="M37.922 26.9604H36.282V28.5605H37.922V26.9604Z" fill="#DAFF29"/>
<path d="M37.922 25.3604H36.282V26.9604H37.922V25.3604Z" fill="#DAFF29"/>
<path d="M37.922 23.8003H36.282V25.4003H37.922V23.8003Z" fill="#DAFF29"/>
<path d="M37.922 22.2007H36.282V23.8007H37.922V22.2007Z" fill="#DAFF29"/>
<path d="M37.922 20.6001H36.282V22.2001H37.922V20.6001Z" fill="#DAFF29"/>
<path d="M37.922 19.0405H36.282V20.6406H37.922V19.0405Z" fill="#DAFF29"/>
<path d="M37.922 17.4399H36.282V19.04H37.922V17.4399Z" fill="#DAFF29"/>
<path d="M37.922 15.8403H36.282V17.4404H37.922V15.8403Z" fill="#DAFF29"/>
<path d="M37.922 14.2803H36.282V15.8803H37.922V14.2803Z" fill="#DAFF29"/>
<path d="M37.922 12.6802H36.282V14.2802H37.922V12.6802Z" fill="#DAFF29"/>
<path d="M37.922 11.0801H36.282V12.6801H37.922V11.0801Z" fill="white"/>
<path d="M37.922 9.52051H36.282V11.1205H37.922V9.52051Z" fill="white"/>
<path d="M37.922 7.91992H36.282V9.51995H37.922V7.91992Z" fill="#DAFF29"/>
<path d="M37.922 6.36035H36.282V7.96038H37.922V6.36035Z" fill="#DAFF29"/>
<path d="M37.922 4.75977H36.282V6.35979H37.922V4.75977Z" fill="black"/>
<path d="M37.922 3.16016H36.282V4.76018H37.922V3.16016Z" fill="black"/>
<path d="M36.3219 49.1611H34.6819V50.7612H36.3219V49.1611Z" fill="black"/>
<path d="M36.3219 47.561H34.6819V49.1611H36.3219V47.561Z" fill="black"/>
<path d="M36.3219 46.001H34.6819V47.601H36.3219V46.001Z" fill="#DAFF29"/>
<path d="M36.3219 44.4009H34.6819V46.0009H36.3219V44.4009Z" fill="#DAFF29"/>
<path d="M36.3219 42.8008H34.6819V44.4008H36.3219V42.8008Z" fill="#A7BC11"/>
<path d="M36.3219 41.2407H34.6819V42.8408H36.3219V41.2407Z" fill="#A7BC11"/>
<path d="M36.3219 39.6406H34.6819V41.2407H36.3219V39.6406Z" fill="#DAFF29"/>
<path d="M36.3219 38.041H34.6819V39.641H36.3219V38.041Z" fill="#DAFF29"/>
<path d="M36.3219 36.4805H34.6819V38.0805H36.3219V36.4805Z" fill="#DAFF29"/>
<path d="M36.3219 34.8809H34.6819V36.4809H36.3219V34.8809Z" fill="#DAFF29"/>
<path d="M36.3219 33.2803H34.6819V34.8803H36.3219V33.2803Z" fill="#DAFF29"/>
<path d="M36.3219 31.7207H34.6819V33.3207H36.3219V31.7207Z" fill="#DAFF29"/>
<path d="M36.3219 30.1206H34.6819V31.7206H36.3219V30.1206Z" fill="#DAFF29"/>
<path d="M36.3219 28.5205H34.6819V30.1205H36.3219V28.5205Z" fill="#DAFF29"/>
<path d="M36.3219 26.9604H34.6819V28.5605H36.3219V26.9604Z" fill="#DAFF29"/>
<path d="M36.3219 25.3604H34.6819V26.9604H36.3219V25.3604Z" fill="#DAFF29"/>
<path d="M36.3219 23.8003H34.6819V25.4003H36.3219V23.8003Z" fill="#DAFF29"/>
<path d="M36.3219 22.2007H34.6819V23.8007H36.3219V22.2007Z" fill="#DAFF29"/>
<path d="M36.3219 20.6001H34.6819V22.2001H36.3219V20.6001Z" fill="#DAFF29"/>
<path d="M36.3219 19.0405H34.6819V20.6406H36.3219V19.0405Z" fill="#DAFF29"/>
<path d="M36.3219 17.4399H34.6819V19.04H36.3219V17.4399Z" fill="#DAFF29"/>
<path d="M36.3219 15.8403H34.6819V17.4404H36.3219V15.8403Z" fill="#DAFF29"/>
<path d="M36.3219 14.2803H34.6819V15.8803H36.3219V14.2803Z" fill="#DAFF29"/>
<path d="M36.3219 12.6802H34.6819V14.2802H36.3219V12.6802Z" fill="#DAFF29"/>
<path d="M36.3219 11.0801H34.6819V12.6801H36.3219V11.0801Z" fill="#DAFF29"/>
<path d="M36.3219 9.52051H34.6819V11.1205H36.3219V9.52051Z" fill="#DAFF29"/>
<path d="M36.3219 7.91992H34.6819V9.51995H36.3219V7.91992Z" fill="white"/>
<path d="M36.3219 6.36035H34.6819V7.96038H36.3219V6.36035Z" fill="white"/>
<path d="M36.3219 4.75977H34.6819V6.35979H36.3219V4.75977Z" fill="#DAFF29"/>
<path d="M36.3219 3.16016H34.6819V4.76018H36.3219V3.16016Z" fill="#DAFF29"/>
<path d="M36.3219 1.6001H34.6819V3.20013H36.3219V1.6001Z" fill="black"/>
<path d="M36.3219 0H34.6819V1.60003H36.3219V0Z" fill="black"/>
<path d="M34.6818 49.1611H33.0417V50.7612H34.6818V49.1611Z" fill="black"/>
<path d="M34.6818 47.561H33.0417V49.1611H34.6818V47.561Z" fill="black"/>
<path d="M34.6818 46.001H33.0417V47.601H34.6818V46.001Z" fill="#DAFF29"/>
<path d="M34.6818 44.4009H33.0417V46.0009H34.6818V44.4009Z" fill="#DAFF29"/>
<path d="M34.6818 42.8008H33.0417V44.4008H34.6818V42.8008Z" fill="#A7BC11"/>
<path d="M34.6818 41.2407H33.0417V42.8408H34.6818V41.2407Z" fill="#A7BC11"/>
<path d="M34.6818 39.6406H33.0417V41.2407H34.6818V39.6406Z" fill="#DAFF29"/>
<path d="M34.6818 38.041H33.0417V39.641H34.6818V38.041Z" fill="#DAFF29"/>
<path d="M34.6818 36.4805H33.0417V38.0805H34.6818V36.4805Z" fill="#DAFF29"/>
<path d="M34.6818 34.8809H33.0417V36.4809H34.6818V34.8809Z" fill="#DAFF29"/>
<path d="M34.6818 33.2803H33.0417V34.8803H34.6818V33.2803Z" fill="#DAFF29"/>
<path d="M34.6818 31.7207H33.0417V33.3207H34.6818V31.7207Z" fill="#DAFF29"/>
<path d="M34.6818 30.1206H33.0417V31.7206H34.6818V30.1206Z" fill="#DAFF29"/>
<path d="M34.6818 28.5205H33.0417V30.1205H34.6818V28.5205Z" fill="#DAFF29"/>
<path d="M34.6818 26.9604H33.0417V28.5605H34.6818V26.9604Z" fill="#DAFF29"/>
<path d="M34.6818 25.3604H33.0417V26.9604H34.6818V25.3604Z" fill="#DAFF29"/>
<path d="M34.6818 23.8003H33.0417V25.4003H34.6818V23.8003Z" fill="#DAFF29"/>
<path d="M34.6818 22.2007H33.0417V23.8007H34.6818V22.2007Z" fill="#DAFF29"/>
<path d="M34.6818 20.6001H33.0417V22.2001H34.6818V20.6001Z" fill="#DAFF29"/>
<path d="M34.6818 19.0405H33.0417V20.6406H34.6818V19.0405Z" fill="#DAFF29"/>
<path d="M34.6818 17.4399H33.0417V19.04H34.6818V17.4399Z" fill="#DAFF29"/>
<path d="M34.6818 15.8403H33.0417V17.4404H34.6818V15.8403Z" fill="#DAFF29"/>
<path d="M34.6818 14.2803H33.0417V15.8803H34.6818V14.2803Z" fill="#DAFF29"/>
<path d="M34.6818 12.6802H33.0417V14.2802H34.6818V12.6802Z" fill="#DAFF29"/>
<path d="M34.6818 11.0801H33.0417V12.6801H34.6818V11.0801Z" fill="#DAFF29"/>
<path d="M34.6818 9.52051H33.0417V11.1205H34.6818V9.52051Z" fill="#DAFF29"/>
<path d="M34.6818 7.91992H33.0417V9.51995H34.6818V7.91992Z" fill="white"/>
<path d="M34.6818 6.36035H33.0417V7.96038H34.6818V6.36035Z" fill="white"/>
<path d="M34.6818 4.75977H33.0417V6.35979H34.6818V4.75977Z" fill="#DAFF29"/>
<path d="M34.6818 3.16016H33.0417V4.76018H34.6818V3.16016Z" fill="#DAFF29"/>
<path d="M34.6818 1.6001H33.0417V3.20013H34.6818V1.6001Z" fill="black"/>
<path d="M34.6818 0H33.0417V1.60003H34.6818V0Z" fill="black"/>
<path d="M33.0419 49.1611H31.4019V50.7612H33.0419V49.1611Z" fill="black"/>
<path d="M33.0419 47.561H31.4019V49.1611H33.0419V47.561Z" fill="black"/>
<path d="M33.0419 46.001H31.4019V47.601H33.0419V46.001Z" fill="#DAFF29"/>
<path d="M33.0419 44.4009H31.4019V46.0009H33.0419V44.4009Z" fill="#DAFF29"/>
<path d="M33.0419 42.8008H31.4019V44.4008H33.0419V42.8008Z" fill="#A7BC11"/>
<path d="M33.0419 41.2407H31.4019V42.8408H33.0419V41.2407Z" fill="#A7BC11"/>
<path d="M33.0419 39.6406H31.4019V41.2407H33.0419V39.6406Z" fill="#DAFF29"/>
<path d="M33.0419 38.041H31.4019V39.641H33.0419V38.041Z" fill="#DAFF29"/>
<path d="M33.0419 36.4805H31.4019V38.0805H33.0419V36.4805Z" fill="#DAFF29"/>
<path d="M33.0419 34.8809H31.4019V36.4809H33.0419V34.8809Z" fill="#DAFF29"/>
<path d="M33.0419 33.2803H31.4019V34.8803H33.0419V33.2803Z" fill="#DAFF29"/>
<path d="M33.0419 31.7207H31.4019V33.3207H33.0419V31.7207Z" fill="#DAFF29"/>
<path d="M33.0419 30.1206H31.4019V31.7206H33.0419V30.1206Z" fill="#DAFF29"/>
<path d="M33.0419 28.5205H31.4019V30.1205H33.0419V28.5205Z" fill="#DAFF29"/>
<path d="M33.0419 26.9604H31.4019V28.5605H33.0419V26.9604Z" fill="#DAFF29"/>
<path d="M33.0419 25.3604H31.4019V26.9604H33.0419V25.3604Z" fill="#DAFF29"/>
<path d="M33.0419 23.8003H31.4019V25.4003H33.0419V23.8003Z" fill="#DAFF29"/>
<path d="M33.0419 22.2007H31.4019V23.8007H33.0419V22.2007Z" fill="#DAFF29"/>
<path d="M33.0419 20.6001H31.4019V22.2001H33.0419V20.6001Z" fill="#DAFF29"/>
<path d="M33.0419 19.0405H31.4019V20.6406H33.0419V19.0405Z" fill="#DAFF29"/>
<path d="M33.0419 17.4399H31.4019V19.04H33.0419V17.4399Z" fill="#DAFF29"/>
<path d="M33.0419 15.8403H31.4019V17.4404H33.0419V15.8403Z" fill="#DAFF29"/>
<path d="M33.0419 14.2803H31.4019V15.8803H33.0419V14.2803Z" fill="#DAFF29"/>
<path d="M33.0419 12.6802H31.4019V14.2802H33.0419V12.6802Z" fill="#DAFF29"/>
<path d="M33.0419 11.0801H31.4019V12.6801H33.0419V11.0801Z" fill="#DAFF29"/>
<path d="M33.0419 9.52051H31.4019V11.1205H33.0419V9.52051Z" fill="#DAFF29"/>
<path d="M33.0419 7.91992H31.4019V9.51995H33.0419V7.91992Z" fill="white"/>
<path d="M33.0419 6.36035H31.4019V7.96038H33.0419V6.36035Z" fill="white"/>
<path d="M33.0419 4.75977H31.4019V6.35979H33.0419V4.75977Z" fill="#DAFF29"/>
<path d="M33.0419 3.16016H31.4019V4.76018H33.0419V3.16016Z" fill="#DAFF29"/>
<path d="M33.0419 1.6001H31.4019V3.20013H33.0419V1.6001Z" fill="black"/>
<path d="M33.0419 0H31.4019V1.60003H33.0419V0Z" fill="black"/>
<path d="M31.402 49.1611H29.762V50.7612H31.402V49.1611Z" fill="black"/>
<path d="M31.402 47.561H29.762V49.1611H31.402V47.561Z" fill="black"/>
<path d="M31.402 46.001H29.762V47.601H31.402V46.001Z" fill="#DAFF29"/>
<path d="M31.402 44.4009H29.762V46.0009H31.402V44.4009Z" fill="#DAFF29"/>
<path d="M31.402 42.8008H29.762V44.4008H31.402V42.8008Z" fill="#A7BC11"/>
<path d="M31.402 41.2407H29.762V42.8408H31.402V41.2407Z" fill="#A7BC11"/>
<path d="M31.402 39.6406H29.762V41.2407H31.402V39.6406Z" fill="#DAFF29"/>
<path d="M31.402 38.041H29.762V39.641H31.402V38.041Z" fill="#DAFF29"/>
<path d="M31.402 36.4805H29.762V38.0805H31.402V36.4805Z" fill="#DAFF29"/>
<path d="M31.402 34.8809H29.762V36.4809H31.402V34.8809Z" fill="#DAFF29"/>
<path d="M31.402 33.2803H29.762V34.8803H31.402V33.2803Z" fill="#DAFF29"/>
<path d="M31.402 31.7207H29.762V33.3207H31.402V31.7207Z" fill="#DAFF29"/>
<path d="M31.402 30.1206H29.762V31.7206H31.402V30.1206Z" fill="#DAFF29"/>
<path d="M31.402 28.5205H29.762V30.1205H31.402V28.5205Z" fill="#DAFF29"/>
<path d="M31.402 26.9604H29.762V28.5605H31.402V26.9604Z" fill="#DAFF29"/>
<path d="M31.402 25.3604H29.762V26.9604H31.402V25.3604Z" fill="#DAFF29"/>
<path d="M31.402 23.8003H29.762V25.4003H31.402V23.8003Z" fill="#DAFF29"/>
<path d="M31.402 22.2007H29.762V23.8007H31.402V22.2007Z" fill="#DAFF29"/>
<path d="M31.402 20.6001H29.762V22.2001H31.402V20.6001Z" fill="#DAFF29"/>
<path d="M31.402 19.0405H29.762V20.6406H31.402V19.0405Z" fill="#DAFF29"/>
<path d="M31.402 17.4399H29.762V19.04H31.402V17.4399Z" fill="#DAFF29"/>
<path d="M31.402 15.8403H29.762V17.4404H31.402V15.8403Z" fill="#DAFF29"/>
<path d="M31.402 14.2803H29.762V15.8803H31.402V14.2803Z" fill="#DAFF29"/>
<path d="M31.402 12.6802H29.762V14.2802H31.402V12.6802Z" fill="#DAFF29"/>
<path d="M31.402 11.0801H29.762V12.6801H31.402V11.0801Z" fill="#DAFF29"/>
<path d="M31.402 9.52051H29.762V11.1205H31.402V9.52051Z" fill="#DAFF29"/>
<path d="M31.402 7.91992H29.762V9.51995H31.402V7.91992Z" fill="white"/>
<path d="M31.402 6.36035H29.762V7.96038H31.402V6.36035Z" fill="white"/>
<path d="M31.402 4.75977H29.762V6.35979H31.402V4.75977Z" fill="#DAFF29"/>
<path d="M31.402 3.16016H29.762V4.76018H31.402V3.16016Z" fill="#DAFF29"/>
<path d="M31.402 1.6001H29.762V3.20013H31.402V1.6001Z" fill="black"/>
<path d="M31.402 0H29.762V1.60003H31.402V0Z" fill="black"/>
<path d="M29.8017 49.1611H28.1616V50.7612H29.8017V49.1611Z" fill="black"/>
<path d="M29.8017 47.561H28.1616V49.1611H29.8017V47.561Z" fill="black"/>
<path d="M29.8017 46.001H28.1616V47.601H29.8017V46.001Z" fill="#DAFF29"/>
<path d="M29.8017 44.4009H28.1616V46.0009H29.8017V44.4009Z" fill="#DAFF29"/>
<path d="M29.8017 42.8008H28.1616V44.4008H29.8017V42.8008Z" fill="#A7BC11"/>
<path d="M29.8017 41.2407H28.1616V42.8408H29.8017V41.2407Z" fill="#A7BC11"/>
<path d="M29.8017 39.6406H28.1616V41.2407H29.8017V39.6406Z" fill="#DAFF29"/>
<path d="M29.8017 38.041H28.1616V39.641H29.8017V38.041Z" fill="#DAFF29"/>
<path d="M29.8017 36.4805H28.1616V38.0805H29.8017V36.4805Z" fill="#DAFF29"/>
<path d="M29.8017 34.8809H28.1616V36.4809H29.8017V34.8809Z" fill="#DAFF29"/>
<path d="M29.8017 33.2803H28.1616V34.8803H29.8017V33.2803Z" fill="#DAFF29"/>
<path d="M29.8017 31.7207H28.1616V33.3207H29.8017V31.7207Z" fill="#DAFF29"/>
<path d="M29.8017 30.1206H28.1616V31.7206H29.8017V30.1206Z" fill="#DAFF29"/>
<path d="M29.8017 28.5205H28.1616V30.1205H29.8017V28.5205Z" fill="#DAFF29"/>
<path d="M29.8017 26.9604H28.1616V28.5605H29.8017V26.9604Z" fill="#DAFF29"/>
<path d="M29.8017 25.3604H28.1616V26.9604H29.8017V25.3604Z" fill="#DAFF29"/>
<path d="M29.8017 23.8003H28.1616V25.4003H29.8017V23.8003Z" fill="#DAFF29"/>
<path d="M29.8017 22.2007H28.1616V23.8007H29.8017V22.2007Z" fill="#DAFF29"/>
<path d="M29.8017 20.6001H28.1616V22.2001H29.8017V20.6001Z" fill="#DAFF29"/>
<path d="M29.8017 19.0405H28.1616V20.6406H29.8017V19.0405Z" fill="#DAFF29"/>
<path d="M29.8017 17.4399H28.1616V19.04H29.8017V17.4399Z" fill="#DAFF29"/>
<path d="M29.8017 15.8403H28.1616V17.4404H29.8017V15.8403Z" fill="#DAFF29"/>
<path d="M29.8017 14.2803H28.1616V15.8803H29.8017V14.2803Z" fill="#DAFF29"/>
<path d="M29.8017 12.6802H28.1616V14.2802H29.8017V12.6802Z" fill="#DAFF29"/>
<path d="M29.8017 11.0801H28.1616V12.6801H29.8017V11.0801Z" fill="#DAFF29"/>
<path d="M29.8017 9.52051H28.1616V11.1205H29.8017V9.52051Z" fill="#DAFF29"/>
<path d="M29.8017 7.91992H28.1616V9.51995H29.8017V7.91992Z" fill="white"/>
<path d="M29.8017 6.36035H28.1616V7.96038H29.8017V6.36035Z" fill="white"/>
<path d="M29.8017 4.75977H28.1616V6.35979H29.8017V4.75977Z" fill="#DAFF29"/>
<path d="M29.8017 3.16016H28.1616V4.76018H29.8017V3.16016Z" fill="#DAFF29"/>
<path d="M29.8017 1.6001H28.1616V3.20013H29.8017V1.6001Z" fill="black"/>
<path d="M29.8017 0H28.1616V1.60003H29.8017V0Z" fill="black"/>
<path d="M28.1618 49.1611H26.5217V50.7612H28.1618V49.1611Z" fill="black"/>
<path d="M28.1618 47.561H26.5217V49.1611H28.1618V47.561Z" fill="black"/>
<path d="M28.1618 46.001H26.5217V47.601H28.1618V46.001Z" fill="#DAFF29"/>
<path d="M28.1618 44.4009H26.5217V46.0009H28.1618V44.4009Z" fill="#DAFF29"/>
<path d="M28.1618 42.8008H26.5217V44.4008H28.1618V42.8008Z" fill="#A7BC11"/>
<path d="M28.1618 41.2407H26.5217V42.8408H28.1618V41.2407Z" fill="#A7BC11"/>
<path d="M28.1618 39.6406H26.5217V41.2407H28.1618V39.6406Z" fill="#DAFF29"/>
<path d="M28.1618 38.041H26.5217V39.641H28.1618V38.041Z" fill="#DAFF29"/>
<path d="M28.1618 36.4805H26.5217V38.0805H28.1618V36.4805Z" fill="#DAFF29"/>
<path d="M28.1618 34.8809H26.5217V36.4809H28.1618V34.8809Z" fill="#DAFF29"/>
<path d="M28.1618 33.2803H26.5217V34.8803H28.1618V33.2803Z" fill="#DAFF29"/>
<path d="M28.1618 31.7207H26.5217V33.3207H28.1618V31.7207Z" fill="#DAFF29"/>
<path d="M28.1618 30.1206H26.5217V31.7206H28.1618V30.1206Z" fill="#DAFF29"/>
<path d="M28.1618 28.5205H26.5217V30.1205H28.1618V28.5205Z" fill="#DAFF29"/>
<path d="M28.1618 26.9604H26.5217V28.5605H28.1618V26.9604Z" fill="#DAFF29"/>
<path d="M28.1618 25.3604H26.5217V26.9604H28.1618V25.3604Z" fill="#DAFF29"/>
<path d="M28.1618 23.8003H26.5217V25.4003H28.1618V23.8003Z" fill="#DAFF29"/>
<path d="M28.1618 22.2007H26.5217V23.8007H28.1618V22.2007Z" fill="#DAFF29"/>
<path d="M28.1618 20.6001H26.5217V22.2001H28.1618V20.6001Z" fill="#DAFF29"/>
<path d="M28.1618 19.0405H26.5217V20.6406H28.1618V19.0405Z" fill="#DAFF29"/>
<path d="M28.1618 17.4399H26.5217V19.04H28.1618V17.4399Z" fill="#DAFF29"/>
<path d="M28.1618 15.8403H26.5217V17.4404H28.1618V15.8403Z" fill="#DAFF29"/>
<path d="M28.1618 14.2803H26.5217V15.8803H28.1618V14.2803Z" fill="#DAFF29"/>
<path d="M28.1618 12.6802H26.5217V14.2802H28.1618V12.6802Z" fill="#DAFF29"/>
<path d="M28.1618 11.0801H26.5217V12.6801H28.1618V11.0801Z" fill="#DAFF29"/>
<path d="M28.1618 9.52051H26.5217V11.1205H28.1618V9.52051Z" fill="#DAFF29"/>
<path d="M28.1618 7.91992H26.5217V9.51995H28.1618V7.91992Z" fill="white"/>
<path d="M28.1618 6.36035H26.5217V7.96038H28.1618V6.36035Z" fill="white"/>
<path d="M28.1618 4.75977H26.5217V6.35979H28.1618V4.75977Z" fill="#DAFF29"/>
<path d="M28.1618 3.16016H26.5217V4.76018H28.1618V3.16016Z" fill="#DAFF29"/>
<path d="M28.1618 1.6001H26.5217V3.20013H28.1618V1.6001Z" fill="black"/>
<path d="M28.1618 0H26.5217V1.60003H28.1618V0Z" fill="black"/>
<path d="M26.5219 49.1611H24.8818V50.7612H26.5219V49.1611Z" fill="black"/>
<path d="M26.5219 47.561H24.8818V49.1611H26.5219V47.561Z" fill="black"/>
<path d="M26.5219 46.001H24.8818V47.601H26.5219V46.001Z" fill="#DAFF29"/>
<path d="M26.5219 44.4009H24.8818V46.0009H26.5219V44.4009Z" fill="#DAFF29"/>
<path d="M26.5219 42.8008H24.8818V44.4008H26.5219V42.8008Z" fill="#A7BC11"/>
<path d="M26.5219 41.2407H24.8818V42.8408H26.5219V41.2407Z" fill="#A7BC11"/>
<path d="M26.5219 39.6406H24.8818V41.2407H26.5219V39.6406Z" fill="#DAFF29"/>
<path d="M26.5219 38.041H24.8818V39.641H26.5219V38.041Z" fill="#DAFF29"/>
<path d="M26.5219 36.4805H24.8818V38.0805H26.5219V36.4805Z" fill="#DAFF29"/>
<path d="M26.5219 34.8809H24.8818V36.4809H26.5219V34.8809Z" fill="#DAFF29"/>
<path d="M26.5219 33.2803H24.8818V34.8803H26.5219V33.2803Z" fill="#DAFF29"/>
<path d="M26.5219 31.7207H24.8818V33.3207H26.5219V31.7207Z" fill="#DAFF29"/>
<path d="M26.5219 30.1206H24.8818V31.7206H26.5219V30.1206Z" fill="#DAFF29"/>
<path d="M26.5219 28.5205H24.8818V30.1205H26.5219V28.5205Z" fill="#DAFF29"/>
<path d="M26.5219 26.9604H24.8818V28.5605H26.5219V26.9604Z" fill="#DAFF29"/>
<path d="M26.5219 25.3604H24.8818V26.9604H26.5219V25.3604Z" fill="#DAFF29"/>
<path d="M26.5219 23.8003H24.8818V25.4003H26.5219V23.8003Z" fill="#DAFF29"/>
<path d="M26.5219 22.2007H24.8818V23.8007H26.5219V22.2007Z" fill="#DAFF29"/>
<path d="M26.5219 20.6001H24.8818V22.2001H26.5219V20.6001Z" fill="#DAFF29"/>
<path d="M26.5219 19.0405H24.8818V20.6406H26.5219V19.0405Z" fill="#DAFF29"/>
<path d="M26.5219 17.4399H24.8818V19.04H26.5219V17.4399Z" fill="#DAFF29"/>
<path d="M26.5219 15.8403H24.8818V17.4404H26.5219V15.8403Z" fill="#DAFF29"/>
<path d="M26.5219 14.2803H24.8818V15.8803H26.5219V14.2803Z" fill="#DAFF29"/>
<path d="M26.5219 12.6802H24.8818V14.2802H26.5219V12.6802Z" fill="#DAFF29"/>
<path d="M26.5219 11.0801H24.8818V12.6801H26.5219V11.0801Z" fill="#DAFF29"/>
<path d="M26.5219 9.52051H24.8818V11.1205H26.5219V9.52051Z" fill="#DAFF29"/>
<path d="M26.5219 7.91992H24.8818V9.51995H26.5219V7.91992Z" fill="white"/>
<path d="M26.5219 6.36035H24.8818V7.96038H26.5219V6.36035Z" fill="white"/>
<path d="M26.5219 4.75977H24.8818V6.35979H26.5219V4.75977Z" fill="#DAFF29"/>
<path d="M26.5219 3.16016H24.8818V4.76018H26.5219V3.16016Z" fill="#DAFF29"/>
<path d="M26.5219 1.6001H24.8818V3.20013H26.5219V1.6001Z" fill="black"/>
<path d="M26.5219 0H24.8818V1.60003H26.5219V0Z" fill="black"/>
<path d="M24.8817 49.1611H23.2417V50.7612H24.8817V49.1611Z" fill="black"/>
<path d="M24.8817 47.561H23.2417V49.1611H24.8817V47.561Z" fill="black"/>
<path d="M24.8817 46.001H23.2417V47.601H24.8817V46.001Z" fill="#DAFF29"/>
<path d="M24.8817 44.4009H23.2417V46.0009H24.8817V44.4009Z" fill="#DAFF29"/>
<path d="M24.8817 42.8008H23.2417V44.4008H24.8817V42.8008Z" fill="#A7BC11"/>
<path d="M24.8817 41.2407H23.2417V42.8408H24.8817V41.2407Z" fill="#A7BC11"/>
<path d="M24.8817 39.6406H23.2417V41.2407H24.8817V39.6406Z" fill="#DAFF29"/>
<path d="M24.8817 38.041H23.2417V39.641H24.8817V38.041Z" fill="#DAFF29"/>
<path d="M24.8817 36.4805H23.2417V38.0805H24.8817V36.4805Z" fill="#DAFF29"/>
<path d="M24.8817 34.8809H23.2417V36.4809H24.8817V34.8809Z" fill="#DAFF29"/>
<path d="M24.8817 33.2803H23.2417V34.8803H24.8817V33.2803Z" fill="#DAFF29"/>
<path d="M24.8817 31.7207H23.2417V33.3207H24.8817V31.7207Z" fill="#DAFF29"/>
<path d="M24.8817 30.1206H23.2417V31.7206H24.8817V30.1206Z" fill="#DAFF29"/>
<path d="M24.8817 28.5205H23.2417V30.1205H24.8817V28.5205Z" fill="#DAFF29"/>
<path d="M24.8817 26.9604H23.2417V28.5605H24.8817V26.9604Z" fill="#DAFF29"/>
<path d="M24.8817 25.3604H23.2417V26.9604H24.8817V25.3604Z" fill="#DAFF29"/>
<path d="M24.8817 23.8003H23.2417V25.4003H24.8817V23.8003Z" fill="#DAFF29"/>
<path d="M24.8817 22.2007H23.2417V23.8007H24.8817V22.2007Z" fill="#DAFF29"/>
<path d="M24.8817 20.6001H23.2417V22.2001H24.8817V20.6001Z" fill="#DAFF29"/>
<path d="M24.8817 19.0405H23.2417V20.6406H24.8817V19.0405Z" fill="#DAFF29"/>
<path d="M24.8817 17.4399H23.2417V19.04H24.8817V17.4399Z" fill="#DAFF29"/>
<path d="M24.8817 15.8403H23.2417V17.4404H24.8817V15.8403Z" fill="#DAFF29"/>
<path d="M24.8817 14.2803H23.2417V15.8803H24.8817V14.2803Z" fill="#DAFF29"/>
<path d="M24.8817 12.6802H23.2417V14.2802H24.8817V12.6802Z" fill="#DAFF29"/>
<path d="M24.8817 11.0801H23.2417V12.6801H24.8817V11.0801Z" fill="#DAFF29"/>
<path d="M24.8817 9.52051H23.2417V11.1205H24.8817V9.52051Z" fill="#DAFF29"/>
<path d="M24.8817 7.91992H23.2417V9.51995H24.8817V7.91992Z" fill="white"/>
<path d="M24.8817 6.36035H23.2417V7.96038H24.8817V6.36035Z" fill="white"/>
<path d="M24.8817 4.75977H23.2417V6.35979H24.8817V4.75977Z" fill="#DAFF29"/>
<path d="M24.8817 3.16016H23.2417V4.76018H24.8817V3.16016Z" fill="#DAFF29"/>
<path d="M24.8817 1.6001H23.2417V3.20013H24.8817V1.6001Z" fill="black"/>
<path d="M24.8817 0H23.2417V1.60003H24.8817V0Z" fill="black"/>
<path d="M23.2816 49.1611H21.6416V50.7612H23.2816V49.1611Z" fill="black"/>
<path d="M23.2816 47.561H21.6416V49.1611H23.2816V47.561Z" fill="black"/>
<path d="M23.2816 46.001H21.6416V47.601H23.2816V46.001Z" fill="#DAFF29"/>
<path d="M23.2816 44.4009H21.6416V46.0009H23.2816V44.4009Z" fill="#DAFF29"/>
<path d="M23.2816 42.8008H21.6416V44.4008H23.2816V42.8008Z" fill="#A7BC11"/>
<path d="M23.2816 41.2407H21.6416V42.8408H23.2816V41.2407Z" fill="#A7BC11"/>
<path d="M23.2816 39.6406H21.6416V41.2407H23.2816V39.6406Z" fill="#DAFF29"/>
<path d="M23.2816 38.041H21.6416V39.641H23.2816V38.041Z" fill="#DAFF29"/>
<path d="M23.2816 36.4805H21.6416V38.0805H23.2816V36.4805Z" fill="#DAFF29"/>
<path d="M23.2816 34.8809H21.6416V36.4809H23.2816V34.8809Z" fill="#DAFF29"/>
<path d="M23.2816 33.2803H21.6416V34.8803H23.2816V33.2803Z" fill="#DAFF29"/>
<path d="M23.2816 31.7207H21.6416V33.3207H23.2816V31.7207Z" fill="#DAFF29"/>
<path d="M23.2816 30.1206H21.6416V31.7206H23.2816V30.1206Z" fill="#DAFF29"/>
<path d="M23.2816 28.5205H21.6416V30.1205H23.2816V28.5205Z" fill="#DAFF29"/>
<path d="M23.2816 26.9604H21.6416V28.5605H23.2816V26.9604Z" fill="#DAFF29"/>
<path d="M23.2816 25.3604H21.6416V26.9604H23.2816V25.3604Z" fill="#DAFF29"/>
<path d="M23.2816 23.8003H21.6416V25.4003H23.2816V23.8003Z" fill="#DAFF29"/>
<path d="M23.2816 22.2007H21.6416V23.8007H23.2816V22.2007Z" fill="#DAFF29"/>
<path d="M23.2816 20.6001H21.6416V22.2001H23.2816V20.6001Z" fill="#DAFF29"/>
<path d="M23.2816 19.0405H21.6416V20.6406H23.2816V19.0405Z" fill="#DAFF29"/>
<path d="M23.2816 17.4399H21.6416V19.04H23.2816V17.4399Z" fill="#DAFF29"/>
<path d="M23.2816 15.8403H21.6416V17.4404H23.2816V15.8403Z" fill="#DAFF29"/>
<path d="M23.2816 14.2803H21.6416V15.8803H23.2816V14.2803Z" fill="#DAFF29"/>
<path d="M23.2816 12.6802H21.6416V14.2802H23.2816V12.6802Z" fill="#DAFF29"/>
<path d="M23.2816 11.0801H21.6416V12.6801H23.2816V11.0801Z" fill="#DAFF29"/>
<path d="M23.2816 9.52051H21.6416V11.1205H23.2816V9.52051Z" fill="#DAFF29"/>
<path d="M23.2816 7.91992H21.6416V9.51995H23.2816V7.91992Z" fill="white"/>
<path d="M23.2816 6.36035H21.6416V7.96038H23.2816V6.36035Z" fill="white"/>
<path d="M23.2816 4.75977H21.6416V6.35979H23.2816V4.75977Z" fill="#DAFF29"/>
<path d="M23.2816 3.16016H21.6416V4.76018H23.2816V3.16016Z" fill="#DAFF29"/>
<path d="M23.2816 1.6001H21.6416V3.20013H23.2816V1.6001Z" fill="black"/>
<path d="M23.2816 0H21.6416V1.60003H23.2816V0Z" fill="black"/>
<path d="M21.6417 49.1611H20.0017V50.7612H21.6417V49.1611Z" fill="black"/>
<path d="M21.6417 47.561H20.0017V49.1611H21.6417V47.561Z" fill="black"/>
<path d="M21.6417 46.001H20.0017V47.601H21.6417V46.001Z" fill="#DAFF29"/>
<path d="M21.6417 44.4009H20.0017V46.0009H21.6417V44.4009Z" fill="#DAFF29"/>
<path d="M21.6417 42.8008H20.0017V44.4008H21.6417V42.8008Z" fill="#A7BC11"/>
<path d="M21.6417 41.2407H20.0017V42.8408H21.6417V41.2407Z" fill="#A7BC11"/>
<path d="M21.6417 39.6406H20.0017V41.2407H21.6417V39.6406Z" fill="#DAFF29"/>
<path d="M21.6417 38.041H20.0017V39.641H21.6417V38.041Z" fill="#DAFF29"/>
<path d="M21.6417 36.4805H20.0017V38.0805H21.6417V36.4805Z" fill="#DAFF29"/>
<path d="M21.6417 34.8809H20.0017V36.4809H21.6417V34.8809Z" fill="#DAFF29"/>
<path d="M21.6417 33.2803H20.0017V34.8803H21.6417V33.2803Z" fill="#DAFF29"/>
<path d="M21.6417 31.7207H20.0017V33.3207H21.6417V31.7207Z" fill="#DAFF29"/>
<path d="M21.6417 30.1206H20.0017V31.7206H21.6417V30.1206Z" fill="#DAFF29"/>
<path d="M21.6417 28.5205H20.0017V30.1205H21.6417V28.5205Z" fill="#DAFF29"/>
<path d="M21.6417 26.9604H20.0017V28.5605H21.6417V26.9604Z" fill="#DAFF29"/>
<path d="M21.6417 25.3604H20.0017V26.9604H21.6417V25.3604Z" fill="#DAFF29"/>
<path d="M21.6417 23.8003H20.0017V25.4003H21.6417V23.8003Z" fill="#DAFF29"/>
<path d="M21.6417 22.2007H20.0017V23.8007H21.6417V22.2007Z" fill="#DAFF29"/>
<path d="M21.6417 20.6001H20.0017V22.2001H21.6417V20.6001Z" fill="#DAFF29"/>
<path d="M21.6417 19.0405H20.0017V20.6406H21.6417V19.0405Z" fill="#DAFF29"/>
<path d="M21.6417 17.4399H20.0017V19.04H21.6417V17.4399Z" fill="#DAFF29"/>
<path d="M21.6417 15.8403H20.0017V17.4404H21.6417V15.8403Z" fill="#DAFF29"/>
<path d="M21.6417 14.2803H20.0017V15.8803H21.6417V14.2803Z" fill="#DAFF29"/>
<path d="M21.6417 12.6802H20.0017V14.2802H21.6417V12.6802Z" fill="#DAFF29"/>
<path d="M21.6417 11.0801H20.0017V12.6801H21.6417V11.0801Z" fill="#DAFF29"/>
<path d="M21.6417 9.52051H20.0017V11.1205H21.6417V9.52051Z" fill="#DAFF29"/>
<path d="M21.6417 7.91992H20.0017V9.51995H21.6417V7.91992Z" fill="white"/>
<path d="M21.6417 6.36035H20.0017V7.96038H21.6417V6.36035Z" fill="white"/>
<path d="M21.6417 4.75977H20.0017V6.35979H21.6417V4.75977Z" fill="#DAFF29"/>
<path d="M21.6417 3.16016H20.0017V4.76018H21.6417V3.16016Z" fill="#DAFF29"/>
<path d="M21.6417 1.6001H20.0017V3.20013H21.6417V1.6001Z" fill="black"/>
<path d="M21.6417 0H20.0017V1.60003H21.6417V0Z" fill="black"/>
<path d="M20.0016 49.1611H18.3616V50.7612H20.0016V49.1611Z" fill="black"/>
<path d="M20.0016 47.561H18.3616V49.1611H20.0016V47.561Z" fill="black"/>
<path d="M20.0016 46.001H18.3616V47.601H20.0016V46.001Z" fill="#DAFF29"/>
<path d="M20.0016 44.4009H18.3616V46.0009H20.0016V44.4009Z" fill="#DAFF29"/>
<path d="M20.0016 42.8008H18.3616V44.4008H20.0016V42.8008Z" fill="#A7BC11"/>
<path d="M20.0016 41.2407H18.3616V42.8408H20.0016V41.2407Z" fill="#A7BC11"/>
<path d="M20.0016 39.6406H18.3616V41.2407H20.0016V39.6406Z" fill="#DAFF29"/>
<path d="M20.0016 38.041H18.3616V39.641H20.0016V38.041Z" fill="#DAFF29"/>
<path d="M20.0016 36.4805H18.3616V38.0805H20.0016V36.4805Z" fill="#DAFF29"/>
<path d="M20.0016 34.8809H18.3616V36.4809H20.0016V34.8809Z" fill="#DAFF29"/>
<path d="M20.0016 33.2803H18.3616V34.8803H20.0016V33.2803Z" fill="#DAFF29"/>
<path d="M20.0016 31.7207H18.3616V33.3207H20.0016V31.7207Z" fill="#DAFF29"/>
<path d="M20.0016 30.1206H18.3616V31.7206H20.0016V30.1206Z" fill="#DAFF29"/>
<path d="M20.0016 28.5205H18.3616V30.1205H20.0016V28.5205Z" fill="#DAFF29"/>
<path d="M20.0016 26.9604H18.3616V28.5605H20.0016V26.9604Z" fill="#DAFF29"/>
<path d="M20.0016 25.3604H18.3616V26.9604H20.0016V25.3604Z" fill="#DAFF29"/>
<path d="M20.0016 23.8003H18.3616V25.4003H20.0016V23.8003Z" fill="#DAFF29"/>
<path d="M20.0016 22.2007H18.3616V23.8007H20.0016V22.2007Z" fill="#DAFF29"/>
<path d="M20.0016 20.6001H18.3616V22.2001H20.0016V20.6001Z" fill="#DAFF29"/>
<path d="M20.0016 19.0405H18.3616V20.6406H20.0016V19.0405Z" fill="#DAFF29"/>
<path d="M20.0016 17.4399H18.3616V19.04H20.0016V17.4399Z" fill="#DAFF29"/>
<path d="M20.0016 15.8403H18.3616V17.4404H20.0016V15.8403Z" fill="#DAFF29"/>
<path d="M20.0016 14.2803H18.3616V15.8803H20.0016V14.2803Z" fill="#DAFF29"/>
<path d="M20.0016 12.6802H18.3616V14.2802H20.0016V12.6802Z" fill="#DAFF29"/>
<path d="M20.0016 11.0801H18.3616V12.6801H20.0016V11.0801Z" fill="#DAFF29"/>
<path d="M20.0016 9.52051H18.3616V11.1205H20.0016V9.52051Z" fill="#DAFF29"/>
<path d="M20.0016 7.91992H18.3616V9.51995H20.0016V7.91992Z" fill="white"/>
<path d="M20.0016 6.36035H18.3616V7.96038H20.0016V6.36035Z" fill="white"/>
<path d="M20.0016 4.75977H18.3616V6.35979H20.0016V4.75977Z" fill="#DAFF29"/>
<path d="M20.0016 3.16016H18.3616V4.76018H20.0016V3.16016Z" fill="#DAFF29"/>
<path d="M20.0016 1.6001H18.3616V3.20013H20.0016V1.6001Z" fill="black"/>
<path d="M20.0016 0H18.3616V1.60003H20.0016V0Z" fill="black"/>
<path d="M18.4015 49.1611H16.7615V50.7612H18.4015V49.1611Z" fill="black"/>
<path d="M18.4015 47.561H16.7615V49.1611H18.4015V47.561Z" fill="black"/>
<path d="M18.4015 46.001H16.7615V47.601H18.4015V46.001Z" fill="#DAFF29"/>
<path d="M18.4015 44.4009H16.7615V46.0009H18.4015V44.4009Z" fill="#DAFF29"/>
<path d="M18.4015 42.8008H16.7615V44.4008H18.4015V42.8008Z" fill="#A7BC11"/>
<path d="M18.4015 41.2407H16.7615V42.8408H18.4015V41.2407Z" fill="#A7BC11"/>
<path d="M18.4015 39.6406H16.7615V41.2407H18.4015V39.6406Z" fill="#DAFF29"/>
<path d="M18.4015 38.041H16.7615V39.641H18.4015V38.041Z" fill="#DAFF29"/>
<path d="M18.4015 36.4805H16.7615V38.0805H18.4015V36.4805Z" fill="#DAFF29"/>
<path d="M18.4015 34.8809H16.7615V36.4809H18.4015V34.8809Z" fill="#DAFF29"/>
<path d="M18.4015 33.2803H16.7615V34.8803H18.4015V33.2803Z" fill="#DAFF29"/>
<path d="M18.4015 31.7207H16.7615V33.3207H18.4015V31.7207Z" fill="#DAFF29"/>
<path d="M18.4015 30.1206H16.7615V31.7206H18.4015V30.1206Z" fill="#DAFF29"/>
<path d="M18.4015 28.5205H16.7615V30.1205H18.4015V28.5205Z" fill="#DAFF29"/>
<path d="M18.4015 26.9604H16.7615V28.5605H18.4015V26.9604Z" fill="#DAFF29"/>
<path d="M18.4015 25.3604H16.7615V26.9604H18.4015V25.3604Z" fill="#DAFF29"/>
<path d="M18.4015 23.8003H16.7615V25.4003H18.4015V23.8003Z" fill="#DAFF29"/>
<path d="M18.4015 22.2007H16.7615V23.8007H18.4015V22.2007Z" fill="#DAFF29"/>
<path d="M18.4015 20.6001H16.7615V22.2001H18.4015V20.6001Z" fill="#DAFF29"/>
<path d="M18.4015 19.0405H16.7615V20.6406H18.4015V19.0405Z" fill="#DAFF29"/>
<path d="M18.4015 17.4399H16.7615V19.04H18.4015V17.4399Z" fill="#DAFF29"/>
<path d="M18.4015 15.8403H16.7615V17.4404H18.4015V15.8403Z" fill="#DAFF29"/>
<path d="M18.4015 14.2803H16.7615V15.8803H18.4015V14.2803Z" fill="#DAFF29"/>
<path d="M18.4015 12.6802H16.7615V14.2802H18.4015V12.6802Z" fill="#DAFF29"/>
<path d="M18.4015 11.0801H16.7615V12.6801H18.4015V11.0801Z" fill="#DAFF29"/>
<path d="M18.4015 9.52051H16.7615V11.1205H18.4015V9.52051Z" fill="#DAFF29"/>
<path d="M18.4015 7.91992H16.7615V9.51995H18.4015V7.91992Z" fill="white"/>
<path d="M18.4015 6.36035H16.7615V7.96038H18.4015V6.36035Z" fill="white"/>
<path d="M18.4015 4.75977H16.7615V6.35979H18.4015V4.75977Z" fill="#DAFF29"/>
<path d="M18.4015 3.16016H16.7615V4.76018H18.4015V3.16016Z" fill="#DAFF29"/>
<path d="M18.4015 1.6001H16.7615V3.20013H18.4015V1.6001Z" fill="black"/>
<path d="M18.4015 0H16.7615V1.60003H18.4015V0Z" fill="black"/>
<path d="M16.7616 46.001H15.1216V47.601H16.7616V46.001Z" fill="black"/>
<path d="M16.7616 44.4009H15.1216V46.0009H16.7616V44.4009Z" fill="black"/>
<path d="M16.7616 42.8008H15.1216V44.4008H16.7616V42.8008Z" fill="#DAFF29"/>
<path d="M16.7616 41.2407H15.1216V42.8408H16.7616V41.2407Z" fill="#DAFF29"/>
<path d="M16.7616 39.6406H15.1216V41.2407H16.7616V39.6406Z" fill="#A7BC11"/>
<path d="M16.7616 38.041H15.1216V39.641H16.7616V38.041Z" fill="#A7BC11"/>
<path d="M16.7616 36.4805H15.1216V38.0805H16.7616V36.4805Z" fill="#DAFF29"/>
<path d="M16.7616 34.8809H15.1216V36.4809H16.7616V34.8809Z" fill="#DAFF29"/>
<path d="M16.7616 33.2803H15.1216V34.8803H16.7616V33.2803Z" fill="#DAFF29"/>
<path d="M16.7616 31.7207H15.1216V33.3207H16.7616V31.7207Z" fill="#DAFF29"/>
<path d="M16.7616 30.1206H15.1216V31.7206H16.7616V30.1206Z" fill="#DAFF29"/>
<path d="M16.7616 28.5205H15.1216V30.1205H16.7616V28.5205Z" fill="#DAFF29"/>
<path d="M16.7616 26.9604H15.1216V28.5605H16.7616V26.9604Z" fill="#DAFF29"/>
<path d="M16.7616 25.3604H15.1216V26.9604H16.7616V25.3604Z" fill="#DAFF29"/>
<path d="M16.7616 23.8003H15.1216V25.4003H16.7616V23.8003Z" fill="#DAFF29"/>
<path d="M16.7616 22.2007H15.1216V23.8007H16.7616V22.2007Z" fill="#DAFF29"/>
<path d="M16.7616 20.6001H15.1216V22.2001H16.7616V20.6001Z" fill="#DAFF29"/>
<path d="M16.7616 19.0405H15.1216V20.6406H16.7616V19.0405Z" fill="#DAFF29"/>
<path d="M16.7616 17.4399H15.1216V19.04H16.7616V17.4399Z" fill="#DAFF29"/>
<path d="M16.7616 15.8403H15.1216V17.4404H16.7616V15.8403Z" fill="#DAFF29"/>
<path d="M16.7616 14.2803H15.1216V15.8803H16.7616V14.2803Z" fill="#DAFF29"/>
<path d="M16.7616 12.6802H15.1216V14.2802H16.7616V12.6802Z" fill="#DAFF29"/>
<path d="M16.7616 11.0801H15.1216V12.6801H16.7616V11.0801Z" fill="white"/>
<path d="M16.7616 9.52051H15.1216V11.1205H16.7616V9.52051Z" fill="white"/>
<path d="M16.7616 7.91992H15.1216V9.51995H16.7616V7.91992Z" fill="#DAFF29"/>
<path d="M16.7616 6.36035H15.1216V7.96038H16.7616V6.36035Z" fill="#DAFF29"/>
<path d="M16.7616 4.75977H15.1216V6.35979H16.7616V4.75977Z" fill="black"/>
<path d="M16.7616 3.16016H15.1216V4.76018H16.7616V3.16016Z" fill="black"/>
<path d="M15.1217 46.001H13.4817V47.601H15.1217V46.001Z" fill="black"/>
<path d="M15.1217 44.4009H13.4817V46.0009H15.1217V44.4009Z" fill="black"/>
<path d="M15.1217 42.8008H13.4817V44.4008H15.1217V42.8008Z" fill="#DAFF29"/>
<path d="M15.1217 41.2407H13.4817V42.8408H15.1217V41.2407Z" fill="#DAFF29"/>
<path d="M15.1217 39.6406H13.4817V41.2407H15.1217V39.6406Z" fill="#A7BC11"/>
<path d="M15.1217 38.041H13.4817V39.641H15.1217V38.041Z" fill="#A7BC11"/>
<path d="M15.1217 36.4805H13.4817V38.0805H15.1217V36.4805Z" fill="#DAFF29"/>
<path d="M15.1217 34.8809H13.4817V36.4809H15.1217V34.8809Z" fill="#DAFF29"/>
<path d="M15.1217 33.2803H13.4817V34.8803H15.1217V33.2803Z" fill="#DAFF29"/>
<path d="M15.1217 31.7207H13.4817V33.3207H15.1217V31.7207Z" fill="#DAFF29"/>
<path d="M15.1217 30.1206H13.4817V31.7206H15.1217V30.1206Z" fill="#DAFF29"/>
<path d="M15.1217 28.5205H13.4817V30.1205H15.1217V28.5205Z" fill="#DAFF29"/>
<path d="M15.1217 26.9604H13.4817V28.5605H15.1217V26.9604Z" fill="#DAFF29"/>
<path d="M15.1217 25.3604H13.4817V26.9604H15.1217V25.3604Z" fill="#DAFF29"/>
<path d="M15.1217 23.8003H13.4817V25.4003H15.1217V23.8003Z" fill="#DAFF29"/>
<path d="M15.1217 22.2007H13.4817V23.8007H15.1217V22.2007Z" fill="#DAFF29"/>
<path d="M15.1217 20.6001H13.4817V22.2001H15.1217V20.6001Z" fill="#DAFF29"/>
<path d="M15.1217 19.0405H13.4817V20.6406H15.1217V19.0405Z" fill="#DAFF29"/>
<path d="M15.1217 17.4399H13.4817V19.04H15.1217V17.4399Z" fill="#DAFF29"/>
<path d="M15.1217 15.8403H13.4817V17.4404H15.1217V15.8403Z" fill="#DAFF29"/>
<path d="M15.1217 14.2803H13.4817V15.8803H15.1217V14.2803Z" fill="#DAFF29"/>
<path d="M15.1217 12.6802H13.4817V14.2802H15.1217V12.6802Z" fill="#DAFF29"/>
<path d="M15.1217 11.0801H13.4817V12.6801H15.1217V11.0801Z" fill="white"/>
<path d="M15.1217 9.52051H13.4817V11.1205H15.1217V9.52051Z" fill="white"/>
<path d="M15.1217 7.91992H13.4817V9.51995H15.1217V7.91992Z" fill="#DAFF29"/>
<path d="M15.1217 6.36035H13.4817V7.96038H15.1217V6.36035Z" fill="#DAFF29"/>
<path d="M15.1217 4.75977H13.4817V6.35979H15.1217V4.75977Z" fill="black"/>
<path d="M15.1217 3.16016H13.4817V4.76018H15.1217V3.16016Z" fill="black"/>
<path d="M13.4816 46.001H11.8416V47.601H13.4816V46.001Z" fill="black"/>
<path d="M13.4816 44.4009H11.8416V46.0009H13.4816V44.4009Z" fill="black"/>
<path d="M13.4816 42.8008H11.8416V44.4008H13.4816V42.8008Z" fill="#DAFF29"/>
<path d="M13.4816 41.2407H11.8416V42.8408H13.4816V41.2407Z" fill="#DAFF29"/>
<path d="M13.4816 39.6406H11.8416V41.2407H13.4816V39.6406Z" fill="#A7BC11"/>
<path d="M13.4816 38.041H11.8416V39.641H13.4816V38.041Z" fill="#A7BC11"/>
<path d="M13.4816 36.4805H11.8416V38.0805H13.4816V36.4805Z" fill="white"/>
<path d="M13.4816 34.8809H11.8416V36.4809H13.4816V34.8809Z" fill="white"/>
<path d="M13.4816 33.2803H11.8416V34.8803H13.4816V33.2803Z" fill="#DAFF29"/>
<path d="M13.4816 31.7207H11.8416V33.3207H13.4816V31.7207Z" fill="#DAFF29"/>
<path d="M13.4816 30.1206H11.8416V31.7206H13.4816V30.1206Z" fill="#DAFF29"/>
<path d="M13.4816 28.5205H11.8416V30.1205H13.4816V28.5205Z" fill="#DAFF29"/>
<path d="M13.4816 26.9604H11.8416V28.5605H13.4816V26.9604Z" fill="#DAFF29"/>
<path d="M13.4816 25.3604H11.8416V26.9604H13.4816V25.3604Z" fill="#DAFF29"/>
<path d="M13.4816 23.8003H11.8416V25.4003H13.4816V23.8003Z" fill="#DAFF29"/>
<path d="M13.4816 22.2007H11.8416V23.8007H13.4816V22.2007Z" fill="#DAFF29"/>
<path d="M13.4816 20.6001H11.8416V22.2001H13.4816V20.6001Z" fill="#DAFF29"/>
<path d="M13.4816 19.0405H11.8416V20.6406H13.4816V19.0405Z" fill="#DAFF29"/>
<path d="M13.4816 17.4399H11.8416V19.04H13.4816V17.4399Z" fill="#DAFF29"/>
<path d="M13.4816 15.8403H11.8416V17.4404H13.4816V15.8403Z" fill="#DAFF29"/>
<path d="M13.4816 14.2803H11.8416V15.8803H13.4816V14.2803Z" fill="white"/>
<path d="M13.4816 12.6802H11.8416V14.2802H13.4816V12.6802Z" fill="white"/>
<path d="M13.4816 11.0801H11.8416V12.6801H13.4816V11.0801Z" fill="white"/>
<path d="M13.4816 9.52051H11.8416V11.1205H13.4816V9.52051Z" fill="white"/>
<path d="M13.4816 7.91992H11.8416V9.51995H13.4816V7.91992Z" fill="#DAFF29"/>
<path d="M13.4816 6.36035H11.8416V7.96038H13.4816V6.36035Z" fill="#DAFF29"/>
<path d="M13.4816 4.75977H11.8416V6.35979H13.4816V4.75977Z" fill="black"/>
<path d="M13.4816 3.16016H11.8416V4.76018H13.4816V3.16016Z" fill="black"/>
<path d="M11.8815 46.001H10.2415V47.601H11.8815V46.001Z" fill="black"/>
<path d="M11.8815 44.4009H10.2415V46.0009H11.8815V44.4009Z" fill="black"/>
<path d="M11.8815 42.8008H10.2415V44.4008H11.8815V42.8008Z" fill="#DAFF29"/>
<path d="M11.8815 41.2407H10.2415V42.8408H11.8815V41.2407Z" fill="#DAFF29"/>
<path d="M11.8815 39.6406H10.2415V41.2407H11.8815V39.6406Z" fill="#A7BC11"/>
<path d="M11.8815 38.041H10.2415V39.641H11.8815V38.041Z" fill="#A7BC11"/>
<path d="M11.8815 36.4805H10.2415V38.0805H11.8815V36.4805Z" fill="white"/>
<path d="M11.8815 34.8809H10.2415V36.4809H11.8815V34.8809Z" fill="white"/>
<path d="M11.8815 33.2803H10.2415V34.8803H11.8815V33.2803Z" fill="#DAFF29"/>
<path d="M11.8815 31.7207H10.2415V33.3207H11.8815V31.7207Z" fill="#DAFF29"/>
<path d="M11.8815 30.1206H10.2415V31.7206H11.8815V30.1206Z" fill="#DAFF29"/>
<path d="M11.8815 28.5205H10.2415V30.1205H11.8815V28.5205Z" fill="#DAFF29"/>
<path d="M11.8815 26.9604H10.2415V28.5605H11.8815V26.9604Z" fill="#DAFF29"/>
<path d="M11.8815 25.3604H10.2415V26.9604H11.8815V25.3604Z" fill="#DAFF29"/>
<path d="M11.8815 23.8003H10.2415V25.4003H11.8815V23.8003Z" fill="#DAFF29"/>
<path d="M11.8815 22.2007H10.2415V23.8007H11.8815V22.2007Z" fill="#DAFF29"/>
<path d="M11.8815 20.6001H10.2415V22.2001H11.8815V20.6001Z" fill="#DAFF29"/>
<path d="M11.8815 19.0405H10.2415V20.6406H11.8815V19.0405Z" fill="#DAFF29"/>
<path d="M11.8815 17.4399H10.2415V19.04H11.8815V17.4399Z" fill="#DAFF29"/>
<path d="M11.8815 15.8403H10.2415V17.4404H11.8815V15.8403Z" fill="#DAFF29"/>
<path d="M11.8815 14.2803H10.2415V15.8803H11.8815V14.2803Z" fill="white"/>
<path d="M11.8815 12.6802H10.2415V14.2802H11.8815V12.6802Z" fill="white"/>
<path d="M11.8815 11.0801H10.2415V12.6801H11.8815V11.0801Z" fill="white"/>
<path d="M11.8815 9.52051H10.2415V11.1205H11.8815V9.52051Z" fill="white"/>
<path d="M11.8815 7.91992H10.2415V9.51995H11.8815V7.91992Z" fill="#DAFF29"/>
<path d="M11.8815 6.36035H10.2415V7.96038H11.8815V6.36035Z" fill="#DAFF29"/>
<path d="M11.8815 4.75977H10.2415V6.35979H11.8815V4.75977Z" fill="black"/>
<path d="M11.8815 3.16016H10.2415V4.76018H11.8815V3.16016Z" fill="black"/>
<path d="M10.2416 42.8008H8.60156V44.4008H10.2416V42.8008Z" fill="black"/>
<path d="M10.2416 41.2407H8.60156V42.8408H10.2416V41.2407Z" fill="black"/>
<path d="M10.2416 39.6406H8.60156V41.2407H10.2416V39.6406Z" fill="#DAFF29"/>
<path d="M10.2416 38.041H8.60156V39.641H10.2416V38.041Z" fill="#DAFF29"/>
<path d="M10.2416 36.4805H8.60156V38.0805H10.2416V36.4805Z" fill="#DAFF29"/>
<path d="M10.2416 34.8809H8.60156V36.4809H10.2416V34.8809Z" fill="#DAFF29"/>
<path d="M10.2416 33.2803H8.60156V34.8803H10.2416V33.2803Z" fill="white"/>
<path d="M10.2416 31.7207H8.60156V33.3207H10.2416V31.7207Z" fill="white"/>
<path d="M10.2416 30.1206H8.60156V31.7206H10.2416V30.1206Z" fill="white"/>
<path d="M10.2416 28.5205H8.60156V30.1205H10.2416V28.5205Z" fill="white"/>
<path d="M10.2416 26.9604H8.60156V28.5605H10.2416V26.9604Z" fill="white"/>
<path d="M10.2416 25.3604H8.60156V26.9604H10.2416V25.3604Z" fill="white"/>
<path d="M10.2416 23.8003H8.60156V25.4003H10.2416V23.8003Z" fill="white"/>
<path d="M10.2416 22.2007H8.60156V23.8007H10.2416V22.2007Z" fill="white"/>
<path d="M10.2416 20.6001H8.60156V22.2001H10.2416V20.6001Z" fill="white"/>
<path d="M10.2416 19.0405H8.60156V20.6406H10.2416V19.0405Z" fill="white"/>
<path d="M10.2416 17.4399H8.60156V19.04H10.2416V17.4399Z" fill="white"/>
<path d="M10.2416 15.8403H8.60156V17.4404H10.2416V15.8403Z" fill="white"/>
<path d="M10.2416 14.2803H8.60156V15.8803H10.2416V14.2803Z" fill="#DAFF29"/>
<path d="M10.2416 12.6802H8.60156V14.2802H10.2416V12.6802Z" fill="#DAFF29"/>
<path d="M10.2416 11.0801H8.60156V12.6801H10.2416V11.0801Z" fill="#DAFF29"/>
<path d="M10.2416 9.52051H8.60156V11.1205H10.2416V9.52051Z" fill="#DAFF29"/>
<path d="M10.2416 7.91992H8.60156V9.51995H10.2416V7.91992Z" fill="black"/>
<path d="M10.2416 6.36035H8.60156V7.96038H10.2416V6.36035Z" fill="black"/>
<path d="M8.60145 42.8008H6.96143V44.4008H8.60145V42.8008Z" fill="black"/>
<path d="M8.60145 41.2407H6.96143V42.8408H8.60145V41.2407Z" fill="black"/>
<path d="M8.60145 39.6406H6.96143V41.2407H8.60145V39.6406Z" fill="#DAFF29"/>
<path d="M8.60145 38.041H6.96143V39.641H8.60145V38.041Z" fill="#DAFF29"/>
<path d="M8.60145 36.4805H6.96143V38.0805H8.60145V36.4805Z" fill="#DAFF29"/>
<path d="M8.60145 34.8809H6.96143V36.4809H8.60145V34.8809Z" fill="#DAFF29"/>
<path d="M8.60145 33.2803H6.96143V34.8803H8.60145V33.2803Z" fill="white"/>
<path d="M8.60145 31.7207H6.96143V33.3207H8.60145V31.7207Z" fill="white"/>
<path d="M8.60145 30.1206H6.96143V31.7206H8.60145V30.1206Z" fill="white"/>
<path d="M8.60145 28.5205H6.96143V30.1205H8.60145V28.5205Z" fill="white"/>
<path d="M8.60145 26.9604H6.96143V28.5605H8.60145V26.9604Z" fill="white"/>
<path d="M8.60145 25.3604H6.96143V26.9604H8.60145V25.3604Z" fill="white"/>
<path d="M8.60145 23.8003H6.96143V25.4003H8.60145V23.8003Z" fill="white"/>
<path d="M8.60145 22.2007H6.96143V23.8007H8.60145V22.2007Z" fill="white"/>
<path d="M8.60145 20.6001H6.96143V22.2001H8.60145V20.6001Z" fill="white"/>
<path d="M8.60145 19.0405H6.96143V20.6406H8.60145V19.0405Z" fill="white"/>
<path d="M8.60145 17.4399H6.96143V19.04H8.60145V17.4399Z" fill="white"/>
<path d="M8.60145 15.8403H6.96143V17.4404H8.60145V15.8403Z" fill="white"/>
<path d="M8.60145 14.2803H6.96143V15.8803H8.60145V14.2803Z" fill="#DAFF29"/>
<path d="M8.60145 12.6802H6.96143V14.2802H8.60145V12.6802Z" fill="#DAFF29"/>
<path d="M8.60145 11.0801H6.96143V12.6801H8.60145V11.0801Z" fill="#DAFF29"/>
<path d="M8.60145 9.52051H6.96143V11.1205H8.60145V9.52051Z" fill="#DAFF29"/>
<path d="M8.60145 7.91992H6.96143V9.51995H8.60145V7.91992Z" fill="black"/>
<path d="M8.60145 6.36035H6.96143V7.96038H8.60145V6.36035Z" fill="black"/>
<path d="M6.96132 39.6406H5.32129V41.2407H6.96132V39.6406Z" fill="black"/>
<path d="M6.96132 38.041H5.32129V39.641H6.96132V38.041Z" fill="black"/>
<path d="M6.96132 36.4805H5.32129V38.0805H6.96132V36.4805Z" fill="black"/>
<path d="M6.96132 34.8809H5.32129V36.4809H6.96132V34.8809Z" fill="black"/>
<path d="M6.96132 33.2803H5.32129V34.8803H6.96132V33.2803Z" fill="#DAFF29"/>
<path d="M6.96132 31.7207H5.32129V33.3207H6.96132V31.7207Z" fill="#DAFF29"/>
<path d="M6.96132 30.1206H5.32129V31.7206H6.96132V30.1206Z" fill="#DAFF29"/>
<path d="M6.96132 28.5205H5.32129V30.1205H6.96132V28.5205Z" fill="#DAFF29"/>
<path d="M6.96132 26.9604H5.32129V28.5605H6.96132V26.9604Z" fill="#DAFF29"/>
<path d="M6.96132 25.3604H5.32129V26.9604H6.96132V25.3604Z" fill="#DAFF29"/>
<path d="M6.96132 23.8003H5.32129V25.4003H6.96132V23.8003Z" fill="#DAFF29"/>
<path d="M6.96132 22.2007H5.32129V23.8007H6.96132V22.2007Z" fill="#DAFF29"/>
<path d="M6.96132 20.6001H5.32129V22.2001H6.96132V20.6001Z" fill="#DAFF29"/>
<path d="M6.96132 19.0405H5.32129V20.6406H6.96132V19.0405Z" fill="#DAFF29"/>
<path d="M6.96132 17.4399H5.32129V19.04H6.96132V17.4399Z" fill="#DAFF29"/>
<path d="M6.96132 15.8403H5.32129V17.4404H6.96132V15.8403Z" fill="#DAFF29"/>
<path d="M6.96132 14.2803H5.32129V15.8803H6.96132V14.2803Z" fill="black"/>
<path d="M6.96132 12.6802H5.32129V14.2802H6.96132V12.6802Z" fill="black"/>
<path d="M6.96132 11.0801H5.32129V12.6801H6.96132V11.0801Z" fill="black"/>
<path d="M6.96132 9.52051H5.32129V11.1205H6.96132V9.52051Z" fill="black"/>
<path d="M5.36146 39.6406H3.72144V41.2407H5.36146V39.6406Z" fill="black"/>
<path d="M5.36146 38.041H3.72144V39.641H5.36146V38.041Z" fill="black"/>
<path d="M5.36146 36.4805H3.72144V38.0805H5.36146V36.4805Z" fill="black"/>
<path d="M5.36146 34.8809H3.72144V36.4809H5.36146V34.8809Z" fill="black"/>
<path d="M5.36146 33.2803H3.72144V34.8803H5.36146V33.2803Z" fill="#DAFF29"/>
<path d="M5.36146 31.7207H3.72144V33.3207H5.36146V31.7207Z" fill="#DAFF29"/>
<path d="M5.36146 30.1206H3.72144V31.7206H5.36146V30.1206Z" fill="#DAFF29"/>
<path d="M5.36146 28.5205H3.72144V30.1205H5.36146V28.5205Z" fill="#DAFF29"/>
<path d="M5.36146 26.9604H3.72144V28.5605H5.36146V26.9604Z" fill="#DAFF29"/>
<path d="M5.36146 25.3604H3.72144V26.9604H5.36146V25.3604Z" fill="#DAFF29"/>
<path d="M5.36146 23.8003H3.72144V25.4003H5.36146V23.8003Z" fill="#DAFF29"/>
<path d="M5.36146 22.2007H3.72144V23.8007H5.36146V22.2007Z" fill="#DAFF29"/>
<path d="M5.36146 20.6001H3.72144V22.2001H5.36146V20.6001Z" fill="#DAFF29"/>
<path d="M5.36146 19.0405H3.72144V20.6406H5.36146V19.0405Z" fill="#DAFF29"/>
<path d="M5.36146 17.4399H3.72144V19.04H5.36146V17.4399Z" fill="#DAFF29"/>
<path d="M5.36146 15.8403H3.72144V17.4404H5.36146V15.8403Z" fill="#DAFF29"/>
<path d="M5.36146 14.2803H3.72144V15.8803H5.36146V14.2803Z" fill="black"/>
<path d="M5.36146 12.6802H3.72144V14.2802H5.36146V12.6802Z" fill="black"/>
<path d="M5.36146 11.0801H3.72144V12.6801H5.36146V11.0801Z" fill="black"/>
<path d="M5.36146 9.52051H3.72144V11.1205H5.36146V9.52051Z" fill="black"/>
<path d="M3.72133 33.2803H2.0813V34.8803H3.72133V33.2803Z" fill="black"/>
<path d="M3.72133 31.7207H2.0813V33.3207H3.72133V31.7207Z" fill="black"/>
<path d="M3.72133 30.1206H2.0813V31.7206H3.72133V30.1206Z" fill="black"/>
<path d="M3.72133 28.5205H2.0813V30.1205H3.72133V28.5205Z" fill="black"/>
<path d="M3.72133 26.9604H2.0813V28.5605H3.72133V26.9604Z" fill="black"/>
<path d="M3.72133 25.3604H2.0813V26.9604H3.72133V25.3604Z" fill="black"/>
<path d="M3.72133 23.8003H2.0813V25.4003H3.72133V23.8003Z" fill="black"/>
<path d="M3.72133 22.2007H2.0813V23.8007H3.72133V22.2007Z" fill="black"/>
<path d="M3.72133 20.6001H2.0813V22.2001H3.72133V20.6001Z" fill="black"/>
<path d="M3.72133 19.0405H2.0813V20.6406H3.72133V19.0405Z" fill="black"/>
<path d="M3.72133 17.4399H2.0813V19.04H3.72133V17.4399Z" fill="black"/>
<path d="M3.72133 15.8403H2.0813V17.4404H3.72133V15.8403Z" fill="black"/>
<path d="M2.08143 33.2803H0.441406V34.8803H2.08143V33.2803Z" fill="black"/>
<path d="M2.08143 31.7207H0.441406V33.3207H2.08143V31.7207Z" fill="black"/>
<path d="M2.08143 30.1206H0.441406V31.7206H2.08143V30.1206Z" fill="black"/>
<path d="M2.08143 28.5205H0.441406V30.1205H2.08143V28.5205Z" fill="black"/>
<path d="M2.08143 26.9604H0.441406V28.5605H2.08143V26.9604Z" fill="black"/>
<path d="M2.08143 25.3604H0.441406V26.9604H2.08143V25.3604Z" fill="black"/>
<path d="M2.08143 23.8003H0.441406V25.4003H2.08143V23.8003Z" fill="black"/>
<path d="M2.08143 22.2007H0.441406V23.8007H2.08143V22.2007Z" fill="black"/>
<path d="M2.08143 20.6001H0.441406V22.2001H2.08143V20.6001Z" fill="black"/>
<path d="M2.08143 19.0405H0.441406V20.6406H2.08143V19.0405Z" fill="black"/>
<path d="M2.08143 17.4399H0.441406V19.04H2.08143V17.4399Z" fill="black"/>
<path d="M2.08143 15.8403H0.441406V17.4404H2.08143V15.8403Z" fill="black"/>
<path d="M24.3616 26.8537H29.0116V33.0537H35.2116V19.1037H33.6616V17.5537H29.0116H19.7116V19.1037H18.1616V33.0537H24.3616V26.8537ZM24.3616 20.6537H29.0116V23.7537H24.3616V20.6537Z" fill="black"/>
</svg>
