<svg width="53" height="51" viewBox="0 0 53 51" fill="none" xmlns="http://www.w3.org/2000/svg">
<path d="M52.1608 33.2803H50.5208V34.8803H52.1608V33.2803Z" fill="black"/>
<path d="M52.1608 31.7207H50.5208V33.3207H52.1608V31.7207Z" fill="black"/>
<path d="M52.1608 30.1206H50.5208V31.7206H52.1608V30.1206Z" fill="black"/>
<path d="M52.1608 28.5205H50.5208V30.1205H52.1608V28.5205Z" fill="black"/>
<path d="M52.1608 26.9604H50.5208V28.5605H52.1608V26.9604Z" fill="black"/>
<path d="M52.1608 25.3604H50.5208V26.9604H52.1608V25.3604Z" fill="black"/>
<path d="M52.1608 23.8003H50.5208V25.4003H52.1608V23.8003Z" fill="black"/>
<path d="M52.1608 22.2007H50.5208V23.8007H52.1608V22.2007Z" fill="black"/>
<path d="M52.1608 20.6001H50.5208V22.2001H52.1608V20.6001Z" fill="black"/>
<path d="M52.1608 19.0405H50.5208V20.6406H52.1608V19.0405Z" fill="black"/>
<path d="M52.1608 17.4399H50.5208V19.04H52.1608V17.4399Z" fill="black"/>
<path d="M52.1608 15.8403H50.5208V17.4404H52.1608V15.8403Z" fill="black"/>
<path d="M50.5206 33.2803H48.8806V34.8803H50.5206V33.2803Z" fill="black"/>
<path d="M50.5206 31.7207H48.8806V33.3207H50.5206V31.7207Z" fill="black"/>
<path d="M50.5206 30.1206H48.8806V31.7206H50.5206V30.1206Z" fill="black"/>
<path d="M50.5206 28.5205H48.8806V30.1205H50.5206V28.5205Z" fill="black"/>
<path d="M50.5206 26.9604H48.8806V28.5605H50.5206V26.9604Z" fill="black"/>
<path d="M50.5206 25.3604H48.8806V26.9604H50.5206V25.3604Z" fill="black"/>
<path d="M50.5206 23.8003H48.8806V25.4003H50.5206V23.8003Z" fill="black"/>
<path d="M50.5206 22.2007H48.8806V23.8007H50.5206V22.2007Z" fill="black"/>
<path d="M50.5206 20.6001H48.8806V22.2001H50.5206V20.6001Z" fill="black"/>
<path d="M50.5206 19.0405H48.8806V20.6406H50.5206V19.0405Z" fill="black"/>
<path d="M50.5206 17.4399H48.8806V19.04H50.5206V17.4399Z" fill="black"/>
<path d="M50.5206 15.8403H48.8806V17.4404H50.5206V15.8403Z" fill="black"/>
<path d="M48.9208 39.6406H47.2808V41.2407H48.9208V39.6406Z" fill="black"/>
<path d="M48.9208 38.041H47.2808V39.641H48.9208V38.041Z" fill="black"/>
<path d="M48.9208 36.4805H47.2808V38.0805H48.9208V36.4805Z" fill="black"/>
<path d="M48.9208 34.8809H47.2808V36.4809H48.9208V34.8809Z" fill="black"/>
<path d="M48.9208 33.2803H47.2808V34.8803H48.9208V33.2803Z" fill="#DAFF29"/>
<path d="M48.9208 31.7207H47.2808V33.3207H48.9208V31.7207Z" fill="#DAFF29"/>
<path d="M48.9208 30.1206H47.2808V31.7206H48.9208V30.1206Z" fill="#DAFF29"/>
<path d="M48.9208 28.5205H47.2808V30.1205H48.9208V28.5205Z" fill="#DAFF29"/>
<path d="M48.9208 26.9604H47.2808V28.5605H48.9208V26.9604Z" fill="#DAFF29"/>
<path d="M48.9208 25.3604H47.2808V26.9604H48.9208V25.3604Z" fill="#DAFF29"/>
<path d="M48.9208 23.8003H47.2808V25.4003H48.9208V23.8003Z" fill="#DAFF29"/>
<path d="M48.9208 22.2007H47.2808V23.8007H48.9208V22.2007Z" fill="#DAFF29"/>
<path d="M48.9208 20.6001H47.2808V22.2001H48.9208V20.6001Z" fill="#DAFF29"/>
<path d="M48.9208 19.0405H47.2808V20.6406H48.9208V19.0405Z" fill="#DAFF29"/>
<path d="M48.9208 17.4399H47.2808V19.04H48.9208V17.4399Z" fill="#DAFF29"/>
<path d="M48.9208 15.8403H47.2808V17.4404H48.9208V15.8403Z" fill="#DAFF29"/>
<path d="M48.9208 14.2803H47.2808V15.8803H48.9208V14.2803Z" fill="black"/>
<path d="M48.9208 12.6802H47.2808V14.2802H48.9208V12.6802Z" fill="black"/>
<path d="M48.9208 11.0801H47.2808V12.6801H48.9208V11.0801Z" fill="black"/>
<path d="M48.9208 9.52051H47.2808V11.1205H48.9208V9.52051Z" fill="black"/>
<path d="M47.2807 39.6406H45.6406V41.2407H47.2807V39.6406Z" fill="black"/>
<path d="M47.2807 38.041H45.6406V39.641H47.2807V38.041Z" fill="black"/>
<path d="M47.2807 36.4805H45.6406V38.0805H47.2807V36.4805Z" fill="black"/>
<path d="M47.2807 34.8809H45.6406V36.4809H47.2807V34.8809Z" fill="black"/>
<path d="M47.2807 33.2803H45.6406V34.8803H47.2807V33.2803Z" fill="#DAFF29"/>
<path d="M47.2807 31.7207H45.6406V33.3207H47.2807V31.7207Z" fill="#DAFF29"/>
<path d="M47.2807 30.1206H45.6406V31.7206H47.2807V30.1206Z" fill="#DAFF29"/>
<path d="M47.2807 28.5205H45.6406V30.1205H47.2807V28.5205Z" fill="#DAFF29"/>
<path d="M47.2807 26.9604H45.6406V28.5605H47.2807V26.9604Z" fill="#DAFF29"/>
<path d="M47.2807 25.3604H45.6406V26.9604H47.2807V25.3604Z" fill="#DAFF29"/>
<path d="M47.2807 23.8003H45.6406V25.4003H47.2807V23.8003Z" fill="#DAFF29"/>
<path d="M47.2807 22.2007H45.6406V23.8007H47.2807V22.2007Z" fill="#DAFF29"/>
<path d="M47.2807 20.6001H45.6406V22.2001H47.2807V20.6001Z" fill="#DAFF29"/>
<path d="M47.2807 19.0405H45.6406V20.6406H47.2807V19.0405Z" fill="#DAFF29"/>
<path d="M47.2807 17.4399H45.6406V19.04H47.2807V17.4399Z" fill="#DAFF29"/>
<path d="M47.2807 15.8403H45.6406V17.4404H47.2807V15.8403Z" fill="#DAFF29"/>
<path d="M47.2807 14.2803H45.6406V15.8803H47.2807V14.2803Z" fill="black"/>
<path d="M47.2807 12.6802H45.6406V14.2802H47.2807V12.6802Z" fill="black"/>
<path d="M47.2807 11.0801H45.6406V12.6801H47.2807V11.0801Z" fill="black"/>
<path d="M47.2807 9.52051H45.6406V11.1205H47.2807V9.52051Z" fill="black"/>
<path d="M45.6408 42.8008H44.0007V44.4008H45.6408V42.8008Z" fill="black"/>
<path d="M45.6408 41.2407H44.0007V42.8408H45.6408V41.2407Z" fill="black"/>
<path d="M45.6408 39.6406H44.0007V41.2407H45.6408V39.6406Z" fill="#DAFF29"/>
<path d="M45.6408 38.041H44.0007V39.641H45.6408V38.041Z" fill="#DAFF29"/>
<path d="M45.6408 36.4805H44.0007V38.0805H45.6408V36.4805Z" fill="#DAFF29"/>
<path d="M45.6408 34.8809H44.0007V36.4809H45.6408V34.8809Z" fill="#DAFF29"/>
<path d="M45.6408 33.2803H44.0007V34.8803H45.6408V33.2803Z" fill="#A7BC11"/>
<path d="M45.6408 31.7207H44.0007V33.3207H45.6408V31.7207Z" fill="#A7BC11"/>
<path d="M45.6408 30.1206H44.0007V31.7206H45.6408V30.1206Z" fill="#A7BC11"/>
<path d="M45.6408 28.5205H44.0007V30.1205H45.6408V28.5205Z" fill="#A7BC11"/>
<path d="M45.6408 26.9604H44.0007V28.5605H45.6408V26.9604Z" fill="#A7BC11"/>
<path d="M45.6408 25.3604H44.0007V26.9604H45.6408V25.3604Z" fill="#A7BC11"/>
<path d="M45.6408 23.8003H44.0007V25.4003H45.6408V23.8003Z" fill="#A7BC11"/>
<path d="M45.6408 22.2007H44.0007V23.8007H45.6408V22.2007Z" fill="#A7BC11"/>
<path d="M45.6408 20.6001H44.0007V22.2001H45.6408V20.6001Z" fill="#A7BC11"/>
<path d="M45.6408 19.0405H44.0007V20.6406H45.6408V19.0405Z" fill="#A7BC11"/>
<path d="M45.6408 17.4399H44.0007V19.04H45.6408V17.4399Z" fill="#A7BC11"/>
<path d="M45.6408 15.8403H44.0007V17.4404H45.6408V15.8403Z" fill="#A7BC11"/>
<path d="M45.6408 14.2803H44.0007V15.8803H45.6408V14.2803Z" fill="#DAFF29"/>
<path d="M45.6408 12.6802H44.0007V14.2802H45.6408V12.6802Z" fill="#DAFF29"/>
<path d="M45.6408 11.0801H44.0007V12.6801H45.6408V11.0801Z" fill="#DAFF29"/>
<path d="M45.6408 9.52051H44.0007V11.1205H45.6408V9.52051Z" fill="#DAFF29"/>
<path d="M45.6408 7.91992H44.0007V9.51995H45.6408V7.91992Z" fill="black"/>
<path d="M45.6408 6.36035H44.0007V7.96038H45.6408V6.36035Z" fill="black"/>
<path d="M44.0006 42.8008H42.3606V44.4008H44.0006V42.8008Z" fill="black"/>
<path d="M44.0006 41.2407H42.3606V42.8408H44.0006V41.2407Z" fill="black"/>
<path d="M44.0006 39.6406H42.3606V41.2407H44.0006V39.6406Z" fill="#DAFF29"/>
<path d="M44.0006 38.041H42.3606V39.641H44.0006V38.041Z" fill="#DAFF29"/>
<path d="M44.0006 36.4805H42.3606V38.0805H44.0006V36.4805Z" fill="#DAFF29"/>
<path d="M44.0006 34.8809H42.3606V36.4809H44.0006V34.8809Z" fill="#DAFF29"/>
<path d="M44.0006 33.2803H42.3606V34.8803H44.0006V33.2803Z" fill="#A7BC11"/>
<path d="M44.0006 31.7207H42.3606V33.3207H44.0006V31.7207Z" fill="#A7BC11"/>
<path d="M44.0006 30.1206H42.3606V31.7206H44.0006V30.1206Z" fill="#A7BC11"/>
<path d="M44.0006 28.5205H42.3606V30.1205H44.0006V28.5205Z" fill="#A7BC11"/>
<path d="M44.0006 26.9604H42.3606V28.5605H44.0006V26.9604Z" fill="#A7BC11"/>
<path d="M44.0006 25.3604H42.3606V26.9604H44.0006V25.3604Z" fill="#A7BC11"/>
<path d="M44.0006 23.8003H42.3606V25.4003H44.0006V23.8003Z" fill="#A7BC11"/>
<path d="M44.0006 22.2007H42.3606V23.8007H44.0006V22.2007Z" fill="#A7BC11"/>
<path d="M44.0006 20.6001H42.3606V22.2001H44.0006V20.6001Z" fill="#A7BC11"/>
<path d="M44.0006 19.0405H42.3606V20.6406H44.0006V19.0405Z" fill="#A7BC11"/>
<path d="M44.0006 17.4399H42.3606V19.04H44.0006V17.4399Z" fill="#A7BC11"/>
<path d="M44.0006 15.8403H42.3606V17.4404H44.0006V15.8403Z" fill="#A7BC11"/>
<path d="M44.0006 14.2803H42.3606V15.8803H44.0006V14.2803Z" fill="#DAFF29"/>
<path d="M44.0006 12.6802H42.3606V14.2802H44.0006V12.6802Z" fill="#DAFF29"/>
<path d="M44.0006 11.0801H42.3606V12.6801H44.0006V11.0801Z" fill="#DAFF29"/>
<path d="M44.0006 9.52051H42.3606V11.1205H44.0006V9.52051Z" fill="#DAFF29"/>
<path d="M44.0006 7.91992H42.3606V9.51995H44.0006V7.91992Z" fill="black"/>
<path d="M44.0006 6.36035H42.3606V7.96038H44.0006V6.36035Z" fill="black"/>
<path d="M42.4005 46.001H40.7605V47.601H42.4005V46.001Z" fill="black"/>
<path d="M42.4005 44.4009H40.7605V46.0009H42.4005V44.4009Z" fill="black"/>
<path d="M42.4005 42.8008H40.7605V44.4008H42.4005V42.8008Z" fill="#DAFF29"/>
<path d="M42.4005 41.2407H40.7605V42.8408H42.4005V41.2407Z" fill="#DAFF29"/>
<path d="M42.4005 39.6406H40.7605V41.2407H42.4005V39.6406Z" fill="#A7BC11"/>
<path d="M42.4005 38.041H40.7605V39.641H42.4005V38.041Z" fill="#A7BC11"/>
<path d="M42.4005 36.4805H40.7605V38.0805H42.4005V36.4805Z" fill="#A7BC11"/>
<path d="M42.4005 34.8809H40.7605V36.4809H42.4005V34.8809Z" fill="#A7BC11"/>
<path d="M42.4005 33.2803H40.7605V34.8803H42.4005V33.2803Z" fill="#DAFF29"/>
<path d="M42.4005 31.7207H40.7605V33.3207H42.4005V31.7207Z" fill="#DAFF29"/>
<path d="M42.4005 30.1206H40.7605V31.7206H42.4005V30.1206Z" fill="#DAFF29"/>
<path d="M42.4005 28.5205H40.7605V30.1205H42.4005V28.5205Z" fill="#DAFF29"/>
<path d="M42.4005 26.9604H40.7605V28.5605H42.4005V26.9604Z" fill="#DAFF29"/>
<path d="M42.4005 25.3604H40.7605V26.9604H42.4005V25.3604Z" fill="#DAFF29"/>
<path d="M42.4005 23.8003H40.7605V25.4003H42.4005V23.8003Z" fill="#DAFF29"/>
<path d="M42.4005 22.2007H40.7605V23.8007H42.4005V22.2007Z" fill="#DAFF29"/>
<path d="M42.4005 20.6001H40.7605V22.2001H42.4005V20.6001Z" fill="#DAFF29"/>
<path d="M42.4005 19.0405H40.7605V20.6406H42.4005V19.0405Z" fill="#DAFF29"/>
<path d="M42.4005 17.4399H40.7605V19.04H42.4005V17.4399Z" fill="#DAFF29"/>
<path d="M42.4005 15.8403H40.7605V17.4404H42.4005V15.8403Z" fill="#DAFF29"/>
<path d="M42.4005 14.2803H40.7605V15.8803H42.4005V14.2803Z" fill="#A7BC11"/>
<path d="M42.4005 12.6802H40.7605V14.2802H42.4005V12.6802Z" fill="#A7BC11"/>
<path d="M42.4005 11.0801H40.7605V12.6801H42.4005V11.0801Z" fill="#A7BC11"/>
<path d="M42.4005 9.52051H40.7605V11.1205H42.4005V9.52051Z" fill="#A7BC11"/>
<path d="M42.4005 7.91992H40.7605V9.51995H42.4005V7.91992Z" fill="#DAFF29"/>
<path d="M42.4005 6.36035H40.7605V7.96038H42.4005V6.36035Z" fill="#DAFF29"/>
<path d="M42.4005 4.75977H40.7605V6.35979H42.4005V4.75977Z" fill="black"/>
<path d="M42.4005 3.16016H40.7605V4.76018H42.4005V3.16016Z" fill="black"/>
<path d="M40.7606 46.001H39.1206V47.601H40.7606V46.001Z" fill="black"/>
<path d="M40.7606 44.4009H39.1206V46.0009H40.7606V44.4009Z" fill="black"/>
<path d="M40.7606 42.8008H39.1206V44.4008H40.7606V42.8008Z" fill="#DAFF29"/>
<path d="M40.7606 41.2407H39.1206V42.8408H40.7606V41.2407Z" fill="#DAFF29"/>
<path d="M40.7606 39.6406H39.1206V41.2407H40.7606V39.6406Z" fill="#A7BC11"/>
<path d="M40.7606 38.041H39.1206V39.641H40.7606V38.041Z" fill="#A7BC11"/>
<path d="M40.7606 36.4805H39.1206V38.0805H40.7606V36.4805Z" fill="#A7BC11"/>
<path d="M40.7606 34.8809H39.1206V36.4809H40.7606V34.8809Z" fill="#A7BC11"/>
<path d="M40.7606 33.2803H39.1206V34.8803H40.7606V33.2803Z" fill="#DAFF29"/>
<path d="M40.7606 31.7207H39.1206V33.3207H40.7606V31.7207Z" fill="#DAFF29"/>
<path d="M40.7606 30.1206H39.1206V31.7206H40.7606V30.1206Z" fill="#DAFF29"/>
<path d="M40.7606 28.5205H39.1206V30.1205H40.7606V28.5205Z" fill="#DAFF29"/>
<path d="M40.7606 26.9604H39.1206V28.5605H40.7606V26.9604Z" fill="#DAFF29"/>
<path d="M40.7606 25.3604H39.1206V26.9604H40.7606V25.3604Z" fill="#DAFF29"/>
<path d="M40.7606 23.8003H39.1206V25.4003H40.7606V23.8003Z" fill="#DAFF29"/>
<path d="M40.7606 22.2007H39.1206V23.8007H40.7606V22.2007Z" fill="#DAFF29"/>
<path d="M40.7606 20.6001H39.1206V22.2001H40.7606V20.6001Z" fill="#DAFF29"/>
<path d="M40.7606 19.0405H39.1206V20.6406H40.7606V19.0405Z" fill="#DAFF29"/>
<path d="M40.7606 17.4399H39.1206V19.04H40.7606V17.4399Z" fill="#DAFF29"/>
<path d="M40.7606 15.8403H39.1206V17.4404H40.7606V15.8403Z" fill="#DAFF29"/>
<path d="M40.7606 14.2803H39.1206V15.8803H40.7606V14.2803Z" fill="#A7BC11"/>
<path d="M40.7606 12.6802H39.1206V14.2802H40.7606V12.6802Z" fill="#A7BC11"/>
<path d="M40.7606 11.0801H39.1206V12.6801H40.7606V11.0801Z" fill="#A7BC11"/>
<path d="M40.7606 9.52051H39.1206V11.1205H40.7606V9.52051Z" fill="#A7BC11"/>
<path d="M40.7606 7.91992H39.1206V9.51995H40.7606V7.91992Z" fill="#DAFF29"/>
<path d="M40.7606 6.36035H39.1206V7.96038H40.7606V6.36035Z" fill="#DAFF29"/>
<path d="M40.7606 4.75977H39.1206V6.35979H40.7606V4.75977Z" fill="black"/>
<path d="M40.7606 3.16016H39.1206V4.76018H40.7606V3.16016Z" fill="black"/>
<path d="M39.1205 46.001H37.4805V47.601H39.1205V46.001Z" fill="black"/>
<path d="M39.1205 44.4009H37.4805V46.0009H39.1205V44.4009Z" fill="black"/>
<path d="M39.1205 42.8008H37.4805V44.4008H39.1205V42.8008Z" fill="#DAFF29"/>
<path d="M39.1205 41.2407H37.4805V42.8408H39.1205V41.2407Z" fill="#DAFF29"/>
<path d="M39.1205 39.6406H37.4805V41.2407H39.1205V39.6406Z" fill="#A7BC11"/>
<path d="M39.1205 38.041H37.4805V39.641H39.1205V38.041Z" fill="#A7BC11"/>
<path d="M39.1205 36.4805H37.4805V38.0805H39.1205V36.4805Z" fill="#DAFF29"/>
<path d="M39.1205 34.8809H37.4805V36.4809H39.1205V34.8809Z" fill="#DAFF29"/>
<path d="M39.1205 33.2803H37.4805V34.8803H39.1205V33.2803Z" fill="#DAFF29"/>
<path d="M39.1205 31.7207H37.4805V33.3207H39.1205V31.7207Z" fill="#DAFF29"/>
<path d="M39.1205 30.1206H37.4805V31.7206H39.1205V30.1206Z" fill="#DAFF29"/>
<path d="M39.1205 28.5205H37.4805V30.1205H39.1205V28.5205Z" fill="#DAFF29"/>
<path d="M39.1205 26.9604H37.4805V28.5605H39.1205V26.9604Z" fill="#DAFF29"/>
<path d="M39.1205 25.3604H37.4805V26.9604H39.1205V25.3604Z" fill="#DAFF29"/>
<path d="M39.1205 23.8003H37.4805V25.4003H39.1205V23.8003Z" fill="#DAFF29"/>
<path d="M39.1205 22.2007H37.4805V23.8007H39.1205V22.2007Z" fill="#DAFF29"/>
<path d="M39.1205 20.6001H37.4805V22.2001H39.1205V20.6001Z" fill="#DAFF29"/>
<path d="M39.1205 19.0405H37.4805V20.6406H39.1205V19.0405Z" fill="#DAFF29"/>
<path d="M39.1205 17.4399H37.4805V19.04H39.1205V17.4399Z" fill="#DAFF29"/>
<path d="M39.1205 15.8403H37.4805V17.4404H39.1205V15.8403Z" fill="#DAFF29"/>
<path d="M39.1205 14.2803H37.4805V15.8803H39.1205V14.2803Z" fill="#DAFF29"/>
<path d="M39.1205 12.6802H37.4805V14.2802H39.1205V12.6802Z" fill="#DAFF29"/>
<path d="M39.1205 11.0801H37.4805V12.6801H39.1205V11.0801Z" fill="white"/>
<path d="M39.1205 9.52051H37.4805V11.1205H39.1205V9.52051Z" fill="white"/>
<path d="M39.1205 7.91992H37.4805V9.51995H39.1205V7.91992Z" fill="#DAFF29"/>
<path d="M39.1205 6.36035H37.4805V7.96038H39.1205V6.36035Z" fill="#DAFF29"/>
<path d="M39.1205 4.75977H37.4805V6.35979H39.1205V4.75977Z" fill="black"/>
<path d="M39.1205 3.16016H37.4805V4.76018H39.1205V3.16016Z" fill="black"/>
<path d="M37.4806 46.001H35.8406V47.601H37.4806V46.001Z" fill="black"/>
<path d="M37.4806 44.4009H35.8406V46.0009H37.4806V44.4009Z" fill="black"/>
<path d="M37.4806 42.8008H35.8406V44.4008H37.4806V42.8008Z" fill="#DAFF29"/>
<path d="M37.4806 41.2407H35.8406V42.8408H37.4806V41.2407Z" fill="#DAFF29"/>
<path d="M37.4806 39.6406H35.8406V41.2407H37.4806V39.6406Z" fill="#A7BC11"/>
<path d="M37.4806 38.041H35.8406V39.641H37.4806V38.041Z" fill="#A7BC11"/>
<path d="M37.4806 36.4805H35.8406V38.0805H37.4806V36.4805Z" fill="#DAFF29"/>
<path d="M37.4806 34.8809H35.8406V36.4809H37.4806V34.8809Z" fill="#DAFF29"/>
<path d="M37.4806 33.2803H35.8406V34.8803H37.4806V33.2803Z" fill="#DAFF29"/>
<path d="M37.4806 31.7207H35.8406V33.3207H37.4806V31.7207Z" fill="#DAFF29"/>
<path d="M37.4806 30.1206H35.8406V31.7206H37.4806V30.1206Z" fill="#DAFF29"/>
<path d="M37.4806 28.5205H35.8406V30.1205H37.4806V28.5205Z" fill="#DAFF29"/>
<path d="M37.4806 26.9604H35.8406V28.5605H37.4806V26.9604Z" fill="#DAFF29"/>
<path d="M37.4806 25.3604H35.8406V26.9604H37.4806V25.3604Z" fill="#DAFF29"/>
<path d="M37.4806 23.8003H35.8406V25.4003H37.4806V23.8003Z" fill="#DAFF29"/>
<path d="M37.4806 22.2007H35.8406V23.8007H37.4806V22.2007Z" fill="#DAFF29"/>
<path d="M37.4806 20.6001H35.8406V22.2001H37.4806V20.6001Z" fill="#DAFF29"/>
<path d="M37.4806 19.0405H35.8406V20.6406H37.4806V19.0405Z" fill="#DAFF29"/>
<path d="M37.4806 17.4399H35.8406V19.04H37.4806V17.4399Z" fill="#DAFF29"/>
<path d="M37.4806 15.8403H35.8406V17.4404H37.4806V15.8403Z" fill="#DAFF29"/>
<path d="M37.4806 14.2803H35.8406V15.8803H37.4806V14.2803Z" fill="#DAFF29"/>
<path d="M37.4806 12.6802H35.8406V14.2802H37.4806V12.6802Z" fill="#DAFF29"/>
<path d="M37.4806 11.0801H35.8406V12.6801H37.4806V11.0801Z" fill="white"/>
<path d="M37.4806 9.52051H35.8406V11.1205H37.4806V9.52051Z" fill="white"/>
<path d="M37.4806 7.91992H35.8406V9.51995H37.4806V7.91992Z" fill="#DAFF29"/>
<path d="M37.4806 6.36035H35.8406V7.96038H37.4806V6.36035Z" fill="#DAFF29"/>
<path d="M37.4806 4.75977H35.8406V6.35979H37.4806V4.75977Z" fill="black"/>
<path d="M37.4806 3.16016H35.8406V4.76018H37.4806V3.16016Z" fill="black"/>
<path d="M35.8805 49.1611H34.2405V50.7612H35.8805V49.1611Z" fill="black"/>
<path d="M35.8805 47.561H34.2405V49.1611H35.8805V47.561Z" fill="black"/>
<path d="M35.8805 46.001H34.2405V47.601H35.8805V46.001Z" fill="#DAFF29"/>
<path d="M35.8805 44.4009H34.2405V46.0009H35.8805V44.4009Z" fill="#DAFF29"/>
<path d="M35.8805 42.8008H34.2405V44.4008H35.8805V42.8008Z" fill="#A7BC11"/>
<path d="M35.8805 41.2407H34.2405V42.8408H35.8805V41.2407Z" fill="#A7BC11"/>
<path d="M35.8805 39.6406H34.2405V41.2407H35.8805V39.6406Z" fill="#DAFF29"/>
<path d="M35.8805 38.041H34.2405V39.641H35.8805V38.041Z" fill="#DAFF29"/>
<path d="M35.8805 36.4805H34.2405V38.0805H35.8805V36.4805Z" fill="#DAFF29"/>
<path d="M35.8805 34.8809H34.2405V36.4809H35.8805V34.8809Z" fill="#DAFF29"/>
<path d="M35.8805 33.2803H34.2405V34.8803H35.8805V33.2803Z" fill="#DAFF29"/>
<path d="M35.8805 31.7207H34.2405V33.3207H35.8805V31.7207Z" fill="#DAFF29"/>
<path d="M35.8805 30.1206H34.2405V31.7206H35.8805V30.1206Z" fill="#DAFF29"/>
<path d="M35.8805 28.5205H34.2405V30.1205H35.8805V28.5205Z" fill="#DAFF29"/>
<path d="M35.8805 26.9604H34.2405V28.5605H35.8805V26.9604Z" fill="#DAFF29"/>
<path d="M35.8805 25.3604H34.2405V26.9604H35.8805V25.3604Z" fill="#DAFF29"/>
<path d="M35.8805 23.8003H34.2405V25.4003H35.8805V23.8003Z" fill="#DAFF29"/>
<path d="M35.8805 22.2007H34.2405V23.8007H35.8805V22.2007Z" fill="#DAFF29"/>
<path d="M35.8805 20.6001H34.2405V22.2001H35.8805V20.6001Z" fill="#DAFF29"/>
<path d="M35.8805 19.0405H34.2405V20.6406H35.8805V19.0405Z" fill="#DAFF29"/>
<path d="M35.8805 17.4399H34.2405V19.04H35.8805V17.4399Z" fill="#DAFF29"/>
<path d="M35.8805 15.8403H34.2405V17.4404H35.8805V15.8403Z" fill="#DAFF29"/>
<path d="M35.8805 14.2803H34.2405V15.8803H35.8805V14.2803Z" fill="#DAFF29"/>
<path d="M35.8805 12.6802H34.2405V14.2802H35.8805V12.6802Z" fill="#DAFF29"/>
<path d="M35.8805 11.0801H34.2405V12.6801H35.8805V11.0801Z" fill="#DAFF29"/>
<path d="M35.8805 9.52051H34.2405V11.1205H35.8805V9.52051Z" fill="#DAFF29"/>
<path d="M35.8805 7.91992H34.2405V9.51995H35.8805V7.91992Z" fill="white"/>
<path d="M35.8805 6.36035H34.2405V7.96038H35.8805V6.36035Z" fill="white"/>
<path d="M35.8805 4.75977H34.2405V6.35979H35.8805V4.75977Z" fill="#DAFF29"/>
<path d="M35.8805 3.16016H34.2405V4.76018H35.8805V3.16016Z" fill="#DAFF29"/>
<path d="M35.8805 1.6001H34.2405V3.20013H35.8805V1.6001Z" fill="black"/>
<path d="M35.8805 0H34.2405V1.60003H35.8805V0Z" fill="black"/>
<path d="M34.2404 49.1611H32.6003V50.7612H34.2404V49.1611Z" fill="black"/>
<path d="M34.2404 47.561H32.6003V49.1611H34.2404V47.561Z" fill="black"/>
<path d="M34.2404 46.001H32.6003V47.601H34.2404V46.001Z" fill="#DAFF29"/>
<path d="M34.2404 44.4009H32.6003V46.0009H34.2404V44.4009Z" fill="#DAFF29"/>
<path d="M34.2404 42.8008H32.6003V44.4008H34.2404V42.8008Z" fill="#A7BC11"/>
<path d="M34.2404 41.2407H32.6003V42.8408H34.2404V41.2407Z" fill="#A7BC11"/>
<path d="M34.2404 39.6406H32.6003V41.2407H34.2404V39.6406Z" fill="#DAFF29"/>
<path d="M34.2404 38.041H32.6003V39.641H34.2404V38.041Z" fill="#DAFF29"/>
<path d="M34.2404 36.4805H32.6003V38.0805H34.2404V36.4805Z" fill="#DAFF29"/>
<path d="M34.2404 34.8809H32.6003V36.4809H34.2404V34.8809Z" fill="#DAFF29"/>
<path d="M34.2404 33.2803H32.6003V34.8803H34.2404V33.2803Z" fill="#DAFF29"/>
<path d="M34.2404 31.7207H32.6003V33.3207H34.2404V31.7207Z" fill="#DAFF29"/>
<path d="M34.2404 30.1206H32.6003V31.7206H34.2404V30.1206Z" fill="#DAFF29"/>
<path d="M34.2404 28.5205H32.6003V30.1205H34.2404V28.5205Z" fill="#DAFF29"/>
<path d="M34.2404 26.9604H32.6003V28.5605H34.2404V26.9604Z" fill="#DAFF29"/>
<path d="M34.2404 25.3604H32.6003V26.9604H34.2404V25.3604Z" fill="#DAFF29"/>
<path d="M34.2404 23.8003H32.6003V25.4003H34.2404V23.8003Z" fill="#DAFF29"/>
<path d="M34.2404 22.2007H32.6003V23.8007H34.2404V22.2007Z" fill="#DAFF29"/>
<path d="M34.2404 20.6001H32.6003V22.2001H34.2404V20.6001Z" fill="#DAFF29"/>
<path d="M34.2404 19.0405H32.6003V20.6406H34.2404V19.0405Z" fill="#DAFF29"/>
<path d="M34.2404 17.4399H32.6003V19.04H34.2404V17.4399Z" fill="#DAFF29"/>
<path d="M34.2404 15.8403H32.6003V17.4404H34.2404V15.8403Z" fill="#DAFF29"/>
<path d="M34.2404 14.2803H32.6003V15.8803H34.2404V14.2803Z" fill="#DAFF29"/>
<path d="M34.2404 12.6802H32.6003V14.2802H34.2404V12.6802Z" fill="#DAFF29"/>
<path d="M34.2404 11.0801H32.6003V12.6801H34.2404V11.0801Z" fill="#DAFF29"/>
<path d="M34.2404 9.52051H32.6003V11.1205H34.2404V9.52051Z" fill="#DAFF29"/>
<path d="M34.2404 7.91992H32.6003V9.51995H34.2404V7.91992Z" fill="white"/>
<path d="M34.2404 6.36035H32.6003V7.96038H34.2404V6.36035Z" fill="white"/>
<path d="M34.2404 4.75977H32.6003V6.35979H34.2404V4.75977Z" fill="#DAFF29"/>
<path d="M34.2404 3.16016H32.6003V4.76018H34.2404V3.16016Z" fill="#DAFF29"/>
<path d="M34.2404 1.6001H32.6003V3.20013H34.2404V1.6001Z" fill="black"/>
<path d="M34.2404 0H32.6003V1.60003H34.2404V0Z" fill="black"/>
<path d="M32.6005 49.1611H30.9604V50.7612H32.6005V49.1611Z" fill="black"/>
<path d="M32.6005 47.561H30.9604V49.1611H32.6005V47.561Z" fill="black"/>
<path d="M32.6005 46.001H30.9604V47.601H32.6005V46.001Z" fill="#DAFF29"/>
<path d="M32.6005 44.4009H30.9604V46.0009H32.6005V44.4009Z" fill="#DAFF29"/>
<path d="M32.6005 42.8008H30.9604V44.4008H32.6005V42.8008Z" fill="#A7BC11"/>
<path d="M32.6005 41.2407H30.9604V42.8408H32.6005V41.2407Z" fill="#A7BC11"/>
<path d="M32.6005 39.6406H30.9604V41.2407H32.6005V39.6406Z" fill="#DAFF29"/>
<path d="M32.6005 38.041H30.9604V39.641H32.6005V38.041Z" fill="#DAFF29"/>
<path d="M32.6005 36.4805H30.9604V38.0805H32.6005V36.4805Z" fill="#DAFF29"/>
<path d="M32.6005 34.8809H30.9604V36.4809H32.6005V34.8809Z" fill="#DAFF29"/>
<path d="M32.6005 33.2803H30.9604V34.8803H32.6005V33.2803Z" fill="#DAFF29"/>
<path d="M32.6005 31.7207H30.9604V33.3207H32.6005V31.7207Z" fill="#DAFF29"/>
<path d="M32.6005 30.1206H30.9604V31.7206H32.6005V30.1206Z" fill="#DAFF29"/>
<path d="M32.6005 28.5205H30.9604V30.1205H32.6005V28.5205Z" fill="#DAFF29"/>
<path d="M32.6005 26.9604H30.9604V28.5605H32.6005V26.9604Z" fill="#DAFF29"/>
<path d="M32.6005 25.3604H30.9604V26.9604H32.6005V25.3604Z" fill="#DAFF29"/>
<path d="M32.6005 23.8003H30.9604V25.4003H32.6005V23.8003Z" fill="#DAFF29"/>
<path d="M32.6005 22.2007H30.9604V23.8007H32.6005V22.2007Z" fill="#DAFF29"/>
<path d="M32.6005 20.6001H30.9604V22.2001H32.6005V20.6001Z" fill="#DAFF29"/>
<path d="M32.6005 19.0405H30.9604V20.6406H32.6005V19.0405Z" fill="#DAFF29"/>
<path d="M32.6005 17.4399H30.9604V19.04H32.6005V17.4399Z" fill="#DAFF29"/>
<path d="M32.6005 15.8403H30.9604V17.4404H32.6005V15.8403Z" fill="#DAFF29"/>
<path d="M32.6005 14.2803H30.9604V15.8803H32.6005V14.2803Z" fill="#DAFF29"/>
<path d="M32.6005 12.6802H30.9604V14.2802H32.6005V12.6802Z" fill="#DAFF29"/>
<path d="M32.6005 11.0801H30.9604V12.6801H32.6005V11.0801Z" fill="#DAFF29"/>
<path d="M32.6005 9.52051H30.9604V11.1205H32.6005V9.52051Z" fill="#DAFF29"/>
<path d="M32.6005 7.91992H30.9604V9.51995H32.6005V7.91992Z" fill="white"/>
<path d="M32.6005 6.36035H30.9604V7.96038H32.6005V6.36035Z" fill="white"/>
<path d="M32.6005 4.75977H30.9604V6.35979H32.6005V4.75977Z" fill="#DAFF29"/>
<path d="M32.6005 3.16016H30.9604V4.76018H32.6005V3.16016Z" fill="#DAFF29"/>
<path d="M32.6005 1.6001H30.9604V3.20013H32.6005V1.6001Z" fill="black"/>
<path d="M32.6005 0H30.9604V1.60003H32.6005V0Z" fill="black"/>
<path d="M30.9606 49.1611H29.3206V50.7612H30.9606V49.1611Z" fill="black"/>
<path d="M30.9606 47.561H29.3206V49.1611H30.9606V47.561Z" fill="black"/>
<path d="M30.9606 46.001H29.3206V47.601H30.9606V46.001Z" fill="#DAFF29"/>
<path d="M30.9606 44.4009H29.3206V46.0009H30.9606V44.4009Z" fill="#DAFF29"/>
<path d="M30.9606 42.8008H29.3206V44.4008H30.9606V42.8008Z" fill="#A7BC11"/>
<path d="M30.9606 41.2407H29.3206V42.8408H30.9606V41.2407Z" fill="#A7BC11"/>
<path d="M30.9606 39.6406H29.3206V41.2407H30.9606V39.6406Z" fill="#DAFF29"/>
<path d="M30.9606 38.041H29.3206V39.641H30.9606V38.041Z" fill="#DAFF29"/>
<path d="M30.9606 36.4805H29.3206V38.0805H30.9606V36.4805Z" fill="#DAFF29"/>
<path d="M30.9606 34.8809H29.3206V36.4809H30.9606V34.8809Z" fill="#DAFF29"/>
<path d="M30.9606 33.2803H29.3206V34.8803H30.9606V33.2803Z" fill="#DAFF29"/>
<path d="M30.9606 31.7207H29.3206V33.3207H30.9606V31.7207Z" fill="#DAFF29"/>
<path d="M30.9606 30.1206H29.3206V31.7206H30.9606V30.1206Z" fill="#DAFF29"/>
<path d="M30.9606 28.5205H29.3206V30.1205H30.9606V28.5205Z" fill="#DAFF29"/>
<path d="M30.9606 26.9604H29.3206V28.5605H30.9606V26.9604Z" fill="#DAFF29"/>
<path d="M30.9606 25.3604H29.3206V26.9604H30.9606V25.3604Z" fill="#DAFF29"/>
<path d="M30.9606 23.8003H29.3206V25.4003H30.9606V23.8003Z" fill="#DAFF29"/>
<path d="M30.9606 22.2007H29.3206V23.8007H30.9606V22.2007Z" fill="#DAFF29"/>
<path d="M30.9606 20.6001H29.3206V22.2001H30.9606V20.6001Z" fill="#DAFF29"/>
<path d="M30.9606 19.0405H29.3206V20.6406H30.9606V19.0405Z" fill="#DAFF29"/>
<path d="M30.9606 17.4399H29.3206V19.04H30.9606V17.4399Z" fill="#DAFF29"/>
<path d="M30.9606 15.8403H29.3206V17.4404H30.9606V15.8403Z" fill="#DAFF29"/>
<path d="M30.9606 14.2803H29.3206V15.8803H30.9606V14.2803Z" fill="#DAFF29"/>
<path d="M30.9606 12.6802H29.3206V14.2802H30.9606V12.6802Z" fill="#DAFF29"/>
<path d="M30.9606 11.0801H29.3206V12.6801H30.9606V11.0801Z" fill="#DAFF29"/>
<path d="M30.9606 9.52051H29.3206V11.1205H30.9606V9.52051Z" fill="#DAFF29"/>
<path d="M30.9606 7.91992H29.3206V9.51995H30.9606V7.91992Z" fill="white"/>
<path d="M30.9606 6.36035H29.3206V7.96038H30.9606V6.36035Z" fill="white"/>
<path d="M30.9606 4.75977H29.3206V6.35979H30.9606V4.75977Z" fill="#DAFF29"/>
<path d="M30.9606 3.16016H29.3206V4.76018H30.9606V3.16016Z" fill="#DAFF29"/>
<path d="M30.9606 1.6001H29.3206V3.20013H30.9606V1.6001Z" fill="black"/>
<path d="M30.9606 0H29.3206V1.60003H30.9606V0Z" fill="black"/>
<path d="M29.3602 49.1611H27.7202V50.7612H29.3602V49.1611Z" fill="black"/>
<path d="M29.3602 47.561H27.7202V49.1611H29.3602V47.561Z" fill="black"/>
<path d="M29.3602 46.001H27.7202V47.601H29.3602V46.001Z" fill="#DAFF29"/>
<path d="M29.3602 44.4009H27.7202V46.0009H29.3602V44.4009Z" fill="#DAFF29"/>
<path d="M29.3602 42.8008H27.7202V44.4008H29.3602V42.8008Z" fill="#A7BC11"/>
<path d="M29.3602 41.2407H27.7202V42.8408H29.3602V41.2407Z" fill="#A7BC11"/>
<path d="M29.3602 39.6406H27.7202V41.2407H29.3602V39.6406Z" fill="#DAFF29"/>
<path d="M29.3602 38.041H27.7202V39.641H29.3602V38.041Z" fill="#DAFF29"/>
<path d="M29.3602 36.4805H27.7202V38.0805H29.3602V36.4805Z" fill="#DAFF29"/>
<path d="M29.3602 34.8809H27.7202V36.4809H29.3602V34.8809Z" fill="#DAFF29"/>
<path d="M29.3602 33.2803H27.7202V34.8803H29.3602V33.2803Z" fill="#DAFF29"/>
<path d="M29.3602 31.7207H27.7202V33.3207H29.3602V31.7207Z" fill="#DAFF29"/>
<path d="M29.3602 30.1206H27.7202V31.7206H29.3602V30.1206Z" fill="#DAFF29"/>
<path d="M29.3602 28.5205H27.7202V30.1205H29.3602V28.5205Z" fill="#DAFF29"/>
<path d="M29.3602 26.9604H27.7202V28.5605H29.3602V26.9604Z" fill="#DAFF29"/>
<path d="M29.3602 25.3604H27.7202V26.9604H29.3602V25.3604Z" fill="#DAFF29"/>
<path d="M29.3602 23.8003H27.7202V25.4003H29.3602V23.8003Z" fill="#DAFF29"/>
<path d="M29.3602 22.2007H27.7202V23.8007H29.3602V22.2007Z" fill="#DAFF29"/>
<path d="M29.3602 20.6001H27.7202V22.2001H29.3602V20.6001Z" fill="#DAFF29"/>
<path d="M29.3602 19.0405H27.7202V20.6406H29.3602V19.0405Z" fill="#DAFF29"/>
<path d="M29.3602 17.4399H27.7202V19.04H29.3602V17.4399Z" fill="#DAFF29"/>
<path d="M29.3602 15.8403H27.7202V17.4404H29.3602V15.8403Z" fill="#DAFF29"/>
<path d="M29.3602 14.2803H27.7202V15.8803H29.3602V14.2803Z" fill="#DAFF29"/>
<path d="M29.3602 12.6802H27.7202V14.2802H29.3602V12.6802Z" fill="#DAFF29"/>
<path d="M29.3602 11.0801H27.7202V12.6801H29.3602V11.0801Z" fill="#DAFF29"/>
<path d="M29.3602 9.52051H27.7202V11.1205H29.3602V9.52051Z" fill="#DAFF29"/>
<path d="M29.3602 7.91992H27.7202V9.51995H29.3602V7.91992Z" fill="white"/>
<path d="M29.3602 6.36035H27.7202V7.96038H29.3602V6.36035Z" fill="white"/>
<path d="M29.3602 4.75977H27.7202V6.35979H29.3602V4.75977Z" fill="#DAFF29"/>
<path d="M29.3602 3.16016H27.7202V4.76018H29.3602V3.16016Z" fill="#DAFF29"/>
<path d="M29.3602 1.6001H27.7202V3.20013H29.3602V1.6001Z" fill="black"/>
<path d="M29.3602 0H27.7202V1.60003H29.3602V0Z" fill="black"/>
<path d="M27.7203 49.1611H26.0803V50.7612H27.7203V49.1611Z" fill="black"/>
<path d="M27.7203 47.561H26.0803V49.1611H27.7203V47.561Z" fill="black"/>
<path d="M27.7203 46.001H26.0803V47.601H27.7203V46.001Z" fill="#DAFF29"/>
<path d="M27.7203 44.4009H26.0803V46.0009H27.7203V44.4009Z" fill="#DAFF29"/>
<path d="M27.7203 42.8008H26.0803V44.4008H27.7203V42.8008Z" fill="#A7BC11"/>
<path d="M27.7203 41.2407H26.0803V42.8408H27.7203V41.2407Z" fill="#A7BC11"/>
<path d="M27.7203 39.6406H26.0803V41.2407H27.7203V39.6406Z" fill="#DAFF29"/>
<path d="M27.7203 38.041H26.0803V39.641H27.7203V38.041Z" fill="#DAFF29"/>
<path d="M27.7203 36.4805H26.0803V38.0805H27.7203V36.4805Z" fill="#DAFF29"/>
<path d="M27.7203 34.8809H26.0803V36.4809H27.7203V34.8809Z" fill="#DAFF29"/>
<path d="M27.7203 33.2803H26.0803V34.8803H27.7203V33.2803Z" fill="#DAFF29"/>
<path d="M27.7203 31.7207H26.0803V33.3207H27.7203V31.7207Z" fill="#DAFF29"/>
<path d="M27.7203 30.1206H26.0803V31.7206H27.7203V30.1206Z" fill="#DAFF29"/>
<path d="M27.7203 28.5205H26.0803V30.1205H27.7203V28.5205Z" fill="#DAFF29"/>
<path d="M27.7203 26.9604H26.0803V28.5605H27.7203V26.9604Z" fill="#DAFF29"/>
<path d="M27.7203 25.3604H26.0803V26.9604H27.7203V25.3604Z" fill="#DAFF29"/>
<path d="M27.7203 23.8003H26.0803V25.4003H27.7203V23.8003Z" fill="#DAFF29"/>
<path d="M27.7203 22.2007H26.0803V23.8007H27.7203V22.2007Z" fill="#DAFF29"/>
<path d="M27.7203 20.6001H26.0803V22.2001H27.7203V20.6001Z" fill="#DAFF29"/>
<path d="M27.7203 19.0405H26.0803V20.6406H27.7203V19.0405Z" fill="#DAFF29"/>
<path d="M27.7203 17.4399H26.0803V19.04H27.7203V17.4399Z" fill="#DAFF29"/>
<path d="M27.7203 15.8403H26.0803V17.4404H27.7203V15.8403Z" fill="#DAFF29"/>
<path d="M27.7203 14.2803H26.0803V15.8803H27.7203V14.2803Z" fill="#DAFF29"/>
<path d="M27.7203 12.6802H26.0803V14.2802H27.7203V12.6802Z" fill="#DAFF29"/>
<path d="M27.7203 11.0801H26.0803V12.6801H27.7203V11.0801Z" fill="#DAFF29"/>
<path d="M27.7203 9.52051H26.0803V11.1205H27.7203V9.52051Z" fill="#DAFF29"/>
<path d="M27.7203 7.91992H26.0803V9.51995H27.7203V7.91992Z" fill="white"/>
<path d="M27.7203 6.36035H26.0803V7.96038H27.7203V6.36035Z" fill="white"/>
<path d="M27.7203 4.75977H26.0803V6.35979H27.7203V4.75977Z" fill="#DAFF29"/>
<path d="M27.7203 3.16016H26.0803V4.76018H27.7203V3.16016Z" fill="#DAFF29"/>
<path d="M27.7203 1.6001H26.0803V3.20013H27.7203V1.6001Z" fill="black"/>
<path d="M27.7203 0H26.0803V1.60003H27.7203V0Z" fill="black"/>
<path d="M26.0805 49.1611H24.4404V50.7612H26.0805V49.1611Z" fill="black"/>
<path d="M26.0805 47.561H24.4404V49.1611H26.0805V47.561Z" fill="black"/>
<path d="M26.0805 46.001H24.4404V47.601H26.0805V46.001Z" fill="#DAFF29"/>
<path d="M26.0805 44.4009H24.4404V46.0009H26.0805V44.4009Z" fill="#DAFF29"/>
<path d="M26.0805 42.8008H24.4404V44.4008H26.0805V42.8008Z" fill="#A7BC11"/>
<path d="M26.0805 41.2407H24.4404V42.8408H26.0805V41.2407Z" fill="#A7BC11"/>
<path d="M26.0805 39.6406H24.4404V41.2407H26.0805V39.6406Z" fill="#DAFF29"/>
<path d="M26.0805 38.041H24.4404V39.641H26.0805V38.041Z" fill="#DAFF29"/>
<path d="M26.0805 36.4805H24.4404V38.0805H26.0805V36.4805Z" fill="#DAFF29"/>
<path d="M26.0805 34.8809H24.4404V36.4809H26.0805V34.8809Z" fill="#DAFF29"/>
<path d="M26.0805 33.2803H24.4404V34.8803H26.0805V33.2803Z" fill="#DAFF29"/>
<path d="M26.0805 31.7207H24.4404V33.3207H26.0805V31.7207Z" fill="#DAFF29"/>
<path d="M26.0805 30.1206H24.4404V31.7206H26.0805V30.1206Z" fill="#DAFF29"/>
<path d="M26.0805 28.5205H24.4404V30.1205H26.0805V28.5205Z" fill="#DAFF29"/>
<path d="M26.0805 26.9604H24.4404V28.5605H26.0805V26.9604Z" fill="#DAFF29"/>
<path d="M26.0805 25.3604H24.4404V26.9604H26.0805V25.3604Z" fill="#DAFF29"/>
<path d="M26.0805 23.8003H24.4404V25.4003H26.0805V23.8003Z" fill="#DAFF29"/>
<path d="M26.0805 22.2007H24.4404V23.8007H26.0805V22.2007Z" fill="#DAFF29"/>
<path d="M26.0805 20.6001H24.4404V22.2001H26.0805V20.6001Z" fill="#DAFF29"/>
<path d="M26.0805 19.0405H24.4404V20.6406H26.0805V19.0405Z" fill="#DAFF29"/>
<path d="M26.0805 17.4399H24.4404V19.04H26.0805V17.4399Z" fill="#DAFF29"/>
<path d="M26.0805 15.8403H24.4404V17.4404H26.0805V15.8403Z" fill="#DAFF29"/>
<path d="M26.0805 14.2803H24.4404V15.8803H26.0805V14.2803Z" fill="#DAFF29"/>
<path d="M26.0805 12.6802H24.4404V14.2802H26.0805V12.6802Z" fill="#DAFF29"/>
<path d="M26.0805 11.0801H24.4404V12.6801H26.0805V11.0801Z" fill="#DAFF29"/>
<path d="M26.0805 9.52051H24.4404V11.1205H26.0805V9.52051Z" fill="#DAFF29"/>
<path d="M26.0805 7.91992H24.4404V9.51995H26.0805V7.91992Z" fill="white"/>
<path d="M26.0805 6.36035H24.4404V7.96038H26.0805V6.36035Z" fill="white"/>
<path d="M26.0805 4.75977H24.4404V6.35979H26.0805V4.75977Z" fill="#DAFF29"/>
<path d="M26.0805 3.16016H24.4404V4.76018H26.0805V3.16016Z" fill="#DAFF29"/>
<path d="M26.0805 1.6001H24.4404V3.20013H26.0805V1.6001Z" fill="black"/>
<path d="M26.0805 0H24.4404V1.60003H26.0805V0Z" fill="black"/>
<path d="M24.4403 49.1611H22.8003V50.7612H24.4403V49.1611Z" fill="black"/>
<path d="M24.4403 47.561H22.8003V49.1611H24.4403V47.561Z" fill="black"/>
<path d="M24.4403 46.001H22.8003V47.601H24.4403V46.001Z" fill="#DAFF29"/>
<path d="M24.4403 44.4009H22.8003V46.0009H24.4403V44.4009Z" fill="#DAFF29"/>
<path d="M24.4403 42.8008H22.8003V44.4008H24.4403V42.8008Z" fill="#A7BC11"/>
<path d="M24.4403 41.2407H22.8003V42.8408H24.4403V41.2407Z" fill="#A7BC11"/>
<path d="M24.4403 39.6406H22.8003V41.2407H24.4403V39.6406Z" fill="#DAFF29"/>
<path d="M24.4403 38.041H22.8003V39.641H24.4403V38.041Z" fill="#DAFF29"/>
<path d="M24.4403 36.4805H22.8003V38.0805H24.4403V36.4805Z" fill="#DAFF29"/>
<path d="M24.4403 34.8809H22.8003V36.4809H24.4403V34.8809Z" fill="#DAFF29"/>
<path d="M24.4403 33.2803H22.8003V34.8803H24.4403V33.2803Z" fill="#DAFF29"/>
<path d="M24.4403 31.7207H22.8003V33.3207H24.4403V31.7207Z" fill="#DAFF29"/>
<path d="M24.4403 30.1206H22.8003V31.7206H24.4403V30.1206Z" fill="#DAFF29"/>
<path d="M24.4403 28.5205H22.8003V30.1205H24.4403V28.5205Z" fill="#DAFF29"/>
<path d="M24.4403 26.9604H22.8003V28.5605H24.4403V26.9604Z" fill="#DAFF29"/>
<path d="M24.4403 25.3604H22.8003V26.9604H24.4403V25.3604Z" fill="#DAFF29"/>
<path d="M24.4403 23.8003H22.8003V25.4003H24.4403V23.8003Z" fill="#DAFF29"/>
<path d="M24.4403 22.2007H22.8003V23.8007H24.4403V22.2007Z" fill="#DAFF29"/>
<path d="M24.4403 20.6001H22.8003V22.2001H24.4403V20.6001Z" fill="#DAFF29"/>
<path d="M24.4403 19.0405H22.8003V20.6406H24.4403V19.0405Z" fill="#DAFF29"/>
<path d="M24.4403 17.4399H22.8003V19.04H24.4403V17.4399Z" fill="#DAFF29"/>
<path d="M24.4403 15.8403H22.8003V17.4404H24.4403V15.8403Z" fill="#DAFF29"/>
<path d="M24.4403 14.2803H22.8003V15.8803H24.4403V14.2803Z" fill="#DAFF29"/>
<path d="M24.4403 12.6802H22.8003V14.2802H24.4403V12.6802Z" fill="#DAFF29"/>
<path d="M24.4403 11.0801H22.8003V12.6801H24.4403V11.0801Z" fill="#DAFF29"/>
<path d="M24.4403 9.52051H22.8003V11.1205H24.4403V9.52051Z" fill="#DAFF29"/>
<path d="M24.4403 7.91992H22.8003V9.51995H24.4403V7.91992Z" fill="white"/>
<path d="M24.4403 6.36035H22.8003V7.96038H24.4403V6.36035Z" fill="white"/>
<path d="M24.4403 4.75977H22.8003V6.35979H24.4403V4.75977Z" fill="#DAFF29"/>
<path d="M24.4403 3.16016H22.8003V4.76018H24.4403V3.16016Z" fill="#DAFF29"/>
<path d="M24.4403 1.6001H22.8003V3.20013H24.4403V1.6001Z" fill="black"/>
<path d="M24.4403 0H22.8003V1.60003H24.4403V0Z" fill="black"/>
<path d="M22.8402 49.1611H21.2002V50.7612H22.8402V49.1611Z" fill="black"/>
<path d="M22.8402 47.561H21.2002V49.1611H22.8402V47.561Z" fill="black"/>
<path d="M22.8402 46.001H21.2002V47.601H22.8402V46.001Z" fill="#DAFF29"/>
<path d="M22.8402 44.4009H21.2002V46.0009H22.8402V44.4009Z" fill="#DAFF29"/>
<path d="M22.8402 42.8008H21.2002V44.4008H22.8402V42.8008Z" fill="#A7BC11"/>
<path d="M22.8402 41.2407H21.2002V42.8408H22.8402V41.2407Z" fill="#A7BC11"/>
<path d="M22.8402 39.6406H21.2002V41.2407H22.8402V39.6406Z" fill="#DAFF29"/>
<path d="M22.8402 38.041H21.2002V39.641H22.8402V38.041Z" fill="#DAFF29"/>
<path d="M22.8402 36.4805H21.2002V38.0805H22.8402V36.4805Z" fill="#DAFF29"/>
<path d="M22.8402 34.8809H21.2002V36.4809H22.8402V34.8809Z" fill="#DAFF29"/>
<path d="M22.8402 33.2803H21.2002V34.8803H22.8402V33.2803Z" fill="#DAFF29"/>
<path d="M22.8402 31.7207H21.2002V33.3207H22.8402V31.7207Z" fill="#DAFF29"/>
<path d="M22.8402 30.1206H21.2002V31.7206H22.8402V30.1206Z" fill="#DAFF29"/>
<path d="M22.8402 28.5205H21.2002V30.1205H22.8402V28.5205Z" fill="#DAFF29"/>
<path d="M22.8402 26.9604H21.2002V28.5605H22.8402V26.9604Z" fill="#DAFF29"/>
<path d="M22.8402 25.3604H21.2002V26.9604H22.8402V25.3604Z" fill="#DAFF29"/>
<path d="M22.8402 23.8003H21.2002V25.4003H22.8402V23.8003Z" fill="#DAFF29"/>
<path d="M22.8402 22.2007H21.2002V23.8007H22.8402V22.2007Z" fill="#DAFF29"/>
<path d="M22.8402 20.6001H21.2002V22.2001H22.8402V20.6001Z" fill="#DAFF29"/>
<path d="M22.8402 19.0405H21.2002V20.6406H22.8402V19.0405Z" fill="#DAFF29"/>
<path d="M22.8402 17.4399H21.2002V19.04H22.8402V17.4399Z" fill="#DAFF29"/>
<path d="M22.8402 15.8403H21.2002V17.4404H22.8402V15.8403Z" fill="#DAFF29"/>
<path d="M22.8402 14.2803H21.2002V15.8803H22.8402V14.2803Z" fill="#DAFF29"/>
<path d="M22.8402 12.6802H21.2002V14.2802H22.8402V12.6802Z" fill="#DAFF29"/>
<path d="M22.8402 11.0801H21.2002V12.6801H22.8402V11.0801Z" fill="#DAFF29"/>
<path d="M22.8402 9.52051H21.2002V11.1205H22.8402V9.52051Z" fill="#DAFF29"/>
<path d="M22.8402 7.91992H21.2002V9.51995H22.8402V7.91992Z" fill="white"/>
<path d="M22.8402 6.36035H21.2002V7.96038H22.8402V6.36035Z" fill="white"/>
<path d="M22.8402 4.75977H21.2002V6.35979H22.8402V4.75977Z" fill="#DAFF29"/>
<path d="M22.8402 3.16016H21.2002V4.76018H22.8402V3.16016Z" fill="#DAFF29"/>
<path d="M22.8402 1.6001H21.2002V3.20013H22.8402V1.6001Z" fill="black"/>
<path d="M22.8402 0H21.2002V1.60003H22.8402V0Z" fill="black"/>
<path d="M21.2003 49.1611H19.5603V50.7612H21.2003V49.1611Z" fill="black"/>
<path d="M21.2003 47.561H19.5603V49.1611H21.2003V47.561Z" fill="black"/>
<path d="M21.2003 46.001H19.5603V47.601H21.2003V46.001Z" fill="#DAFF29"/>
<path d="M21.2003 44.4009H19.5603V46.0009H21.2003V44.4009Z" fill="#DAFF29"/>
<path d="M21.2003 42.8008H19.5603V44.4008H21.2003V42.8008Z" fill="#A7BC11"/>
<path d="M21.2003 41.2407H19.5603V42.8408H21.2003V41.2407Z" fill="#A7BC11"/>
<path d="M21.2003 39.6406H19.5603V41.2407H21.2003V39.6406Z" fill="#DAFF29"/>
<path d="M21.2003 38.041H19.5603V39.641H21.2003V38.041Z" fill="#DAFF29"/>
<path d="M21.2003 36.4805H19.5603V38.0805H21.2003V36.4805Z" fill="#DAFF29"/>
<path d="M21.2003 34.8809H19.5603V36.4809H21.2003V34.8809Z" fill="#DAFF29"/>
<path d="M21.2003 33.2803H19.5603V34.8803H21.2003V33.2803Z" fill="#DAFF29"/>
<path d="M21.2003 31.7207H19.5603V33.3207H21.2003V31.7207Z" fill="#DAFF29"/>
<path d="M21.2003 30.1206H19.5603V31.7206H21.2003V30.1206Z" fill="#DAFF29"/>
<path d="M21.2003 28.5205H19.5603V30.1205H21.2003V28.5205Z" fill="#DAFF29"/>
<path d="M21.2003 26.9604H19.5603V28.5605H21.2003V26.9604Z" fill="#DAFF29"/>
<path d="M21.2003 25.3604H19.5603V26.9604H21.2003V25.3604Z" fill="#DAFF29"/>
<path d="M21.2003 23.8003H19.5603V25.4003H21.2003V23.8003Z" fill="#DAFF29"/>
<path d="M21.2003 22.2007H19.5603V23.8007H21.2003V22.2007Z" fill="#DAFF29"/>
<path d="M21.2003 20.6001H19.5603V22.2001H21.2003V20.6001Z" fill="#DAFF29"/>
<path d="M21.2003 19.0405H19.5603V20.6406H21.2003V19.0405Z" fill="#DAFF29"/>
<path d="M21.2003 17.4399H19.5603V19.04H21.2003V17.4399Z" fill="#DAFF29"/>
<path d="M21.2003 15.8403H19.5603V17.4404H21.2003V15.8403Z" fill="#DAFF29"/>
<path d="M21.2003 14.2803H19.5603V15.8803H21.2003V14.2803Z" fill="#DAFF29"/>
<path d="M21.2003 12.6802H19.5603V14.2802H21.2003V12.6802Z" fill="#DAFF29"/>
<path d="M21.2003 11.0801H19.5603V12.6801H21.2003V11.0801Z" fill="#DAFF29"/>
<path d="M21.2003 9.52051H19.5603V11.1205H21.2003V9.52051Z" fill="#DAFF29"/>
<path d="M21.2003 7.91992H19.5603V9.51995H21.2003V7.91992Z" fill="white"/>
<path d="M21.2003 6.36035H19.5603V7.96038H21.2003V6.36035Z" fill="white"/>
<path d="M21.2003 4.75977H19.5603V6.35979H21.2003V4.75977Z" fill="#DAFF29"/>
<path d="M21.2003 3.16016H19.5603V4.76018H21.2003V3.16016Z" fill="#DAFF29"/>
<path d="M21.2003 1.6001H19.5603V3.20013H21.2003V1.6001Z" fill="black"/>
<path d="M21.2003 0H19.5603V1.60003H21.2003V0Z" fill="black"/>
<path d="M19.5602 49.1611H17.9202V50.7612H19.5602V49.1611Z" fill="black"/>
<path d="M19.5602 47.561H17.9202V49.1611H19.5602V47.561Z" fill="black"/>
<path d="M19.5602 46.001H17.9202V47.601H19.5602V46.001Z" fill="#DAFF29"/>
<path d="M19.5602 44.4009H17.9202V46.0009H19.5602V44.4009Z" fill="#DAFF29"/>
<path d="M19.5602 42.8008H17.9202V44.4008H19.5602V42.8008Z" fill="#A7BC11"/>
<path d="M19.5602 41.2407H17.9202V42.8408H19.5602V41.2407Z" fill="#A7BC11"/>
<path d="M19.5602 39.6406H17.9202V41.2407H19.5602V39.6406Z" fill="#DAFF29"/>
<path d="M19.5602 38.041H17.9202V39.641H19.5602V38.041Z" fill="#DAFF29"/>
<path d="M19.5602 36.4805H17.9202V38.0805H19.5602V36.4805Z" fill="#DAFF29"/>
<path d="M19.5602 34.8809H17.9202V36.4809H19.5602V34.8809Z" fill="#DAFF29"/>
<path d="M19.5602 33.2803H17.9202V34.8803H19.5602V33.2803Z" fill="#DAFF29"/>
<path d="M19.5602 31.7207H17.9202V33.3207H19.5602V31.7207Z" fill="#DAFF29"/>
<path d="M19.5602 30.1206H17.9202V31.7206H19.5602V30.1206Z" fill="#DAFF29"/>
<path d="M19.5602 28.5205H17.9202V30.1205H19.5602V28.5205Z" fill="#DAFF29"/>
<path d="M19.5602 26.9604H17.9202V28.5605H19.5602V26.9604Z" fill="#DAFF29"/>
<path d="M19.5602 25.3604H17.9202V26.9604H19.5602V25.3604Z" fill="#DAFF29"/>
<path d="M19.5602 23.8003H17.9202V25.4003H19.5602V23.8003Z" fill="#DAFF29"/>
<path d="M19.5602 22.2007H17.9202V23.8007H19.5602V22.2007Z" fill="#DAFF29"/>
<path d="M19.5602 20.6001H17.9202V22.2001H19.5602V20.6001Z" fill="#DAFF29"/>
<path d="M19.5602 19.0405H17.9202V20.6406H19.5602V19.0405Z" fill="#DAFF29"/>
<path d="M19.5602 17.4399H17.9202V19.04H19.5602V17.4399Z" fill="#DAFF29"/>
<path d="M19.5602 15.8403H17.9202V17.4404H19.5602V15.8403Z" fill="#DAFF29"/>
<path d="M19.5602 14.2803H17.9202V15.8803H19.5602V14.2803Z" fill="#DAFF29"/>
<path d="M19.5602 12.6802H17.9202V14.2802H19.5602V12.6802Z" fill="#DAFF29"/>
<path d="M19.5602 11.0801H17.9202V12.6801H19.5602V11.0801Z" fill="#DAFF29"/>
<path d="M19.5602 9.52051H17.9202V11.1205H19.5602V9.52051Z" fill="#DAFF29"/>
<path d="M19.5602 7.91992H17.9202V9.51995H19.5602V7.91992Z" fill="white"/>
<path d="M19.5602 6.36035H17.9202V7.96038H19.5602V6.36035Z" fill="white"/>
<path d="M19.5602 4.75977H17.9202V6.35979H19.5602V4.75977Z" fill="#DAFF29"/>
<path d="M19.5602 3.16016H17.9202V4.76018H19.5602V3.16016Z" fill="#DAFF29"/>
<path d="M19.5602 1.6001H17.9202V3.20013H19.5602V1.6001Z" fill="black"/>
<path d="M19.5602 0H17.9202V1.60003H19.5602V0Z" fill="black"/>
<path d="M17.9601 49.1611H16.3201V50.7612H17.9601V49.1611Z" fill="black"/>
<path d="M17.9601 47.561H16.3201V49.1611H17.9601V47.561Z" fill="black"/>
<path d="M17.9601 46.001H16.3201V47.601H17.9601V46.001Z" fill="#DAFF29"/>
<path d="M17.9601 44.4009H16.3201V46.0009H17.9601V44.4009Z" fill="#DAFF29"/>
<path d="M17.9601 42.8008H16.3201V44.4008H17.9601V42.8008Z" fill="#A7BC11"/>
<path d="M17.9601 41.2407H16.3201V42.8408H17.9601V41.2407Z" fill="#A7BC11"/>
<path d="M17.9601 39.6406H16.3201V41.2407H17.9601V39.6406Z" fill="#DAFF29"/>
<path d="M17.9601 38.041H16.3201V39.641H17.9601V38.041Z" fill="#DAFF29"/>
<path d="M17.9601 36.4805H16.3201V38.0805H17.9601V36.4805Z" fill="#DAFF29"/>
<path d="M17.9601 34.8809H16.3201V36.4809H17.9601V34.8809Z" fill="#DAFF29"/>
<path d="M17.9601 33.2803H16.3201V34.8803H17.9601V33.2803Z" fill="#DAFF29"/>
<path d="M17.9601 31.7207H16.3201V33.3207H17.9601V31.7207Z" fill="#DAFF29"/>
<path d="M17.9601 30.1206H16.3201V31.7206H17.9601V30.1206Z" fill="#DAFF29"/>
<path d="M17.9601 28.5205H16.3201V30.1205H17.9601V28.5205Z" fill="#DAFF29"/>
<path d="M17.9601 26.9604H16.3201V28.5605H17.9601V26.9604Z" fill="#DAFF29"/>
<path d="M17.9601 25.3604H16.3201V26.9604H17.9601V25.3604Z" fill="#DAFF29"/>
<path d="M17.9601 23.8003H16.3201V25.4003H17.9601V23.8003Z" fill="#DAFF29"/>
<path d="M17.9601 22.2007H16.3201V23.8007H17.9601V22.2007Z" fill="#DAFF29"/>
<path d="M17.9601 20.6001H16.3201V22.2001H17.9601V20.6001Z" fill="#DAFF29"/>
<path d="M17.9601 19.0405H16.3201V20.6406H17.9601V19.0405Z" fill="#DAFF29"/>
<path d="M17.9601 17.4399H16.3201V19.04H17.9601V17.4399Z" fill="#DAFF29"/>
<path d="M17.9601 15.8403H16.3201V17.4404H17.9601V15.8403Z" fill="#DAFF29"/>
<path d="M17.9601 14.2803H16.3201V15.8803H17.9601V14.2803Z" fill="#DAFF29"/>
<path d="M17.9601 12.6802H16.3201V14.2802H17.9601V12.6802Z" fill="#DAFF29"/>
<path d="M17.9601 11.0801H16.3201V12.6801H17.9601V11.0801Z" fill="#DAFF29"/>
<path d="M17.9601 9.52051H16.3201V11.1205H17.9601V9.52051Z" fill="#DAFF29"/>
<path d="M17.9601 7.91992H16.3201V9.51995H17.9601V7.91992Z" fill="white"/>
<path d="M17.9601 6.36035H16.3201V7.96038H17.9601V6.36035Z" fill="white"/>
<path d="M17.9601 4.75977H16.3201V6.35979H17.9601V4.75977Z" fill="#DAFF29"/>
<path d="M17.9601 3.16016H16.3201V4.76018H17.9601V3.16016Z" fill="#DAFF29"/>
<path d="M17.9601 1.6001H16.3201V3.20013H17.9601V1.6001Z" fill="black"/>
<path d="M17.9601 0H16.3201V1.60003H17.9601V0Z" fill="black"/>
<path d="M16.3202 46.001H14.6802V47.601H16.3202V46.001Z" fill="black"/>
<path d="M16.3202 44.4009H14.6802V46.0009H16.3202V44.4009Z" fill="black"/>
<path d="M16.3202 42.8008H14.6802V44.4008H16.3202V42.8008Z" fill="#DAFF29"/>
<path d="M16.3202 41.2407H14.6802V42.8408H16.3202V41.2407Z" fill="#DAFF29"/>
<path d="M16.3202 39.6406H14.6802V41.2407H16.3202V39.6406Z" fill="#A7BC11"/>
<path d="M16.3202 38.041H14.6802V39.641H16.3202V38.041Z" fill="#A7BC11"/>
<path d="M16.3202 36.4805H14.6802V38.0805H16.3202V36.4805Z" fill="#DAFF29"/>
<path d="M16.3202 34.8809H14.6802V36.4809H16.3202V34.8809Z" fill="#DAFF29"/>
<path d="M16.3202 33.2803H14.6802V34.8803H16.3202V33.2803Z" fill="#DAFF29"/>
<path d="M16.3202 31.7207H14.6802V33.3207H16.3202V31.7207Z" fill="#DAFF29"/>
<path d="M16.3202 30.1206H14.6802V31.7206H16.3202V30.1206Z" fill="#DAFF29"/>
<path d="M16.3202 28.5205H14.6802V30.1205H16.3202V28.5205Z" fill="#DAFF29"/>
<path d="M16.3202 26.9604H14.6802V28.5605H16.3202V26.9604Z" fill="#DAFF29"/>
<path d="M16.3202 25.3604H14.6802V26.9604H16.3202V25.3604Z" fill="#DAFF29"/>
<path d="M16.3202 23.8003H14.6802V25.4003H16.3202V23.8003Z" fill="#DAFF29"/>
<path d="M16.3202 22.2007H14.6802V23.8007H16.3202V22.2007Z" fill="#DAFF29"/>
<path d="M16.3202 20.6001H14.6802V22.2001H16.3202V20.6001Z" fill="#DAFF29"/>
<path d="M16.3202 19.0405H14.6802V20.6406H16.3202V19.0405Z" fill="#DAFF29"/>
<path d="M16.3202 17.4399H14.6802V19.04H16.3202V17.4399Z" fill="#DAFF29"/>
<path d="M16.3202 15.8403H14.6802V17.4404H16.3202V15.8403Z" fill="#DAFF29"/>
<path d="M16.3202 14.2803H14.6802V15.8803H16.3202V14.2803Z" fill="#DAFF29"/>
<path d="M16.3202 12.6802H14.6802V14.2802H16.3202V12.6802Z" fill="#DAFF29"/>
<path d="M16.3202 11.0801H14.6802V12.6801H16.3202V11.0801Z" fill="white"/>
<path d="M16.3202 9.52051H14.6802V11.1205H16.3202V9.52051Z" fill="white"/>
<path d="M16.3202 7.91992H14.6802V9.51995H16.3202V7.91992Z" fill="#DAFF29"/>
<path d="M16.3202 6.36035H14.6802V7.96038H16.3202V6.36035Z" fill="#DAFF29"/>
<path d="M16.3202 4.75977H14.6802V6.35979H16.3202V4.75977Z" fill="black"/>
<path d="M16.3202 3.16016H14.6802V4.76018H16.3202V3.16016Z" fill="black"/>
<path d="M14.6803 46.001H13.0403V47.601H14.6803V46.001Z" fill="black"/>
<path d="M14.6803 44.4009H13.0403V46.0009H14.6803V44.4009Z" fill="black"/>
<path d="M14.6803 42.8008H13.0403V44.4008H14.6803V42.8008Z" fill="#DAFF29"/>
<path d="M14.6803 41.2407H13.0403V42.8408H14.6803V41.2407Z" fill="#DAFF29"/>
<path d="M14.6803 39.6406H13.0403V41.2407H14.6803V39.6406Z" fill="#A7BC11"/>
<path d="M14.6803 38.041H13.0403V39.641H14.6803V38.041Z" fill="#A7BC11"/>
<path d="M14.6803 36.4805H13.0403V38.0805H14.6803V36.4805Z" fill="#DAFF29"/>
<path d="M14.6803 34.8809H13.0403V36.4809H14.6803V34.8809Z" fill="#DAFF29"/>
<path d="M14.6803 33.2803H13.0403V34.8803H14.6803V33.2803Z" fill="#DAFF29"/>
<path d="M14.6803 31.7207H13.0403V33.3207H14.6803V31.7207Z" fill="#DAFF29"/>
<path d="M14.6803 30.1206H13.0403V31.7206H14.6803V30.1206Z" fill="#DAFF29"/>
<path d="M14.6803 28.5205H13.0403V30.1205H14.6803V28.5205Z" fill="#DAFF29"/>
<path d="M14.6803 26.9604H13.0403V28.5605H14.6803V26.9604Z" fill="#DAFF29"/>
<path d="M14.6803 25.3604H13.0403V26.9604H14.6803V25.3604Z" fill="#DAFF29"/>
<path d="M14.6803 23.8003H13.0403V25.4003H14.6803V23.8003Z" fill="#DAFF29"/>
<path d="M14.6803 22.2007H13.0403V23.8007H14.6803V22.2007Z" fill="#DAFF29"/>
<path d="M14.6803 20.6001H13.0403V22.2001H14.6803V20.6001Z" fill="#DAFF29"/>
<path d="M14.6803 19.0405H13.0403V20.6406H14.6803V19.0405Z" fill="#DAFF29"/>
<path d="M14.6803 17.4399H13.0403V19.04H14.6803V17.4399Z" fill="#DAFF29"/>
<path d="M14.6803 15.8403H13.0403V17.4404H14.6803V15.8403Z" fill="#DAFF29"/>
<path d="M14.6803 14.2803H13.0403V15.8803H14.6803V14.2803Z" fill="#DAFF29"/>
<path d="M14.6803 12.6802H13.0403V14.2802H14.6803V12.6802Z" fill="#DAFF29"/>
<path d="M14.6803 11.0801H13.0403V12.6801H14.6803V11.0801Z" fill="white"/>
<path d="M14.6803 9.52051H13.0403V11.1205H14.6803V9.52051Z" fill="white"/>
<path d="M14.6803 7.91992H13.0403V9.51995H14.6803V7.91992Z" fill="#DAFF29"/>
<path d="M14.6803 6.36035H13.0403V7.96038H14.6803V6.36035Z" fill="#DAFF29"/>
<path d="M14.6803 4.75977H13.0403V6.35979H14.6803V4.75977Z" fill="black"/>
<path d="M14.6803 3.16016H13.0403V4.76018H14.6803V3.16016Z" fill="black"/>
<path d="M13.0402 46.001H11.4001V47.601H13.0402V46.001Z" fill="black"/>
<path d="M13.0402 44.4009H11.4001V46.0009H13.0402V44.4009Z" fill="black"/>
<path d="M13.0402 42.8008H11.4001V44.4008H13.0402V42.8008Z" fill="#DAFF29"/>
<path d="M13.0402 41.2407H11.4001V42.8408H13.0402V41.2407Z" fill="#DAFF29"/>
<path d="M13.0402 39.6406H11.4001V41.2407H13.0402V39.6406Z" fill="#A7BC11"/>
<path d="M13.0402 38.041H11.4001V39.641H13.0402V38.041Z" fill="#A7BC11"/>
<path d="M13.0402 36.4805H11.4001V38.0805H13.0402V36.4805Z" fill="white"/>
<path d="M13.0402 34.8809H11.4001V36.4809H13.0402V34.8809Z" fill="white"/>
<path d="M13.0402 33.2803H11.4001V34.8803H13.0402V33.2803Z" fill="#DAFF29"/>
<path d="M13.0402 31.7207H11.4001V33.3207H13.0402V31.7207Z" fill="#DAFF29"/>
<path d="M13.0402 30.1206H11.4001V31.7206H13.0402V30.1206Z" fill="#DAFF29"/>
<path d="M13.0402 28.5205H11.4001V30.1205H13.0402V28.5205Z" fill="#DAFF29"/>
<path d="M13.0402 26.9604H11.4001V28.5605H13.0402V26.9604Z" fill="#DAFF29"/>
<path d="M13.0402 25.3604H11.4001V26.9604H13.0402V25.3604Z" fill="#DAFF29"/>
<path d="M13.0402 23.8003H11.4001V25.4003H13.0402V23.8003Z" fill="#DAFF29"/>
<path d="M13.0402 22.2007H11.4001V23.8007H13.0402V22.2007Z" fill="#DAFF29"/>
<path d="M13.0402 20.6001H11.4001V22.2001H13.0402V20.6001Z" fill="#DAFF29"/>
<path d="M13.0402 19.0405H11.4001V20.6406H13.0402V19.0405Z" fill="#DAFF29"/>
<path d="M13.0402 17.4399H11.4001V19.04H13.0402V17.4399Z" fill="#DAFF29"/>
<path d="M13.0402 15.8403H11.4001V17.4404H13.0402V15.8403Z" fill="#DAFF29"/>
<path d="M13.0402 14.2803H11.4001V15.8803H13.0402V14.2803Z" fill="white"/>
<path d="M13.0402 12.6802H11.4001V14.2802H13.0402V12.6802Z" fill="white"/>
<path d="M13.0402 11.0801H11.4001V12.6801H13.0402V11.0801Z" fill="white"/>
<path d="M13.0402 9.52051H11.4001V11.1205H13.0402V9.52051Z" fill="white"/>
<path d="M13.0402 7.91992H11.4001V9.51995H13.0402V7.91992Z" fill="#DAFF29"/>
<path d="M13.0402 6.36035H11.4001V7.96038H13.0402V6.36035Z" fill="#DAFF29"/>
<path d="M13.0402 4.75977H11.4001V6.35979H13.0402V4.75977Z" fill="black"/>
<path d="M13.0402 3.16016H11.4001V4.76018H13.0402V3.16016Z" fill="black"/>
<path d="M11.4401 46.001H9.80005V47.601H11.4401V46.001Z" fill="black"/>
<path d="M11.4401 44.4009H9.80005V46.0009H11.4401V44.4009Z" fill="black"/>
<path d="M11.4401 42.8008H9.80005V44.4008H11.4401V42.8008Z" fill="#DAFF29"/>
<path d="M11.4401 41.2407H9.80005V42.8408H11.4401V41.2407Z" fill="#DAFF29"/>
<path d="M11.4401 39.6406H9.80005V41.2407H11.4401V39.6406Z" fill="#A7BC11"/>
<path d="M11.4401 38.041H9.80005V39.641H11.4401V38.041Z" fill="#A7BC11"/>
<path d="M11.4401 36.4805H9.80005V38.0805H11.4401V36.4805Z" fill="white"/>
<path d="M11.4401 34.8809H9.80005V36.4809H11.4401V34.8809Z" fill="white"/>
<path d="M11.4401 33.2803H9.80005V34.8803H11.4401V33.2803Z" fill="#DAFF29"/>
<path d="M11.4401 31.7207H9.80005V33.3207H11.4401V31.7207Z" fill="#DAFF29"/>
<path d="M11.4401 30.1206H9.80005V31.7206H11.4401V30.1206Z" fill="#DAFF29"/>
<path d="M11.4401 28.5205H9.80005V30.1205H11.4401V28.5205Z" fill="#DAFF29"/>
<path d="M11.4401 26.9604H9.80005V28.5605H11.4401V26.9604Z" fill="#DAFF29"/>
<path d="M11.4401 25.3604H9.80005V26.9604H11.4401V25.3604Z" fill="#DAFF29"/>
<path d="M11.4401 23.8003H9.80005V25.4003H11.4401V23.8003Z" fill="#DAFF29"/>
<path d="M11.4401 22.2007H9.80005V23.8007H11.4401V22.2007Z" fill="#DAFF29"/>
<path d="M11.4401 20.6001H9.80005V22.2001H11.4401V20.6001Z" fill="#DAFF29"/>
<path d="M11.4401 19.0405H9.80005V20.6406H11.4401V19.0405Z" fill="#DAFF29"/>
<path d="M11.4401 17.4399H9.80005V19.04H11.4401V17.4399Z" fill="#DAFF29"/>
<path d="M11.4401 15.8403H9.80005V17.4404H11.4401V15.8403Z" fill="#DAFF29"/>
<path d="M11.4401 14.2803H9.80005V15.8803H11.4401V14.2803Z" fill="white"/>
<path d="M11.4401 12.6802H9.80005V14.2802H11.4401V12.6802Z" fill="white"/>
<path d="M11.4401 11.0801H9.80005V12.6801H11.4401V11.0801Z" fill="white"/>
<path d="M11.4401 9.52051H9.80005V11.1205H11.4401V9.52051Z" fill="white"/>
<path d="M11.4401 7.91992H9.80005V9.51995H11.4401V7.91992Z" fill="#DAFF29"/>
<path d="M11.4401 6.36035H9.80005V7.96038H11.4401V6.36035Z" fill="#DAFF29"/>
<path d="M11.4401 4.75977H9.80005V6.35979H11.4401V4.75977Z" fill="black"/>
<path d="M11.4401 3.16016H9.80005V4.76018H11.4401V3.16016Z" fill="black"/>
<path d="M9.80019 42.8008H8.16016V44.4008H9.80019V42.8008Z" fill="black"/>
<path d="M9.80019 41.2407H8.16016V42.8408H9.80019V41.2407Z" fill="black"/>
<path d="M9.80019 39.6406H8.16016V41.2407H9.80019V39.6406Z" fill="#DAFF29"/>
<path d="M9.80019 38.041H8.16016V39.641H9.80019V38.041Z" fill="#DAFF29"/>
<path d="M9.80019 36.4805H8.16016V38.0805H9.80019V36.4805Z" fill="#DAFF29"/>
<path d="M9.80019 34.8809H8.16016V36.4809H9.80019V34.8809Z" fill="#DAFF29"/>
<path d="M9.80019 33.2803H8.16016V34.8803H9.80019V33.2803Z" fill="white"/>
<path d="M9.80019 31.7207H8.16016V33.3207H9.80019V31.7207Z" fill="white"/>
<path d="M9.80019 30.1206H8.16016V31.7206H9.80019V30.1206Z" fill="white"/>
<path d="M9.80019 28.5205H8.16016V30.1205H9.80019V28.5205Z" fill="white"/>
<path d="M9.80019 26.9604H8.16016V28.5605H9.80019V26.9604Z" fill="white"/>
<path d="M9.80019 25.3604H8.16016V26.9604H9.80019V25.3604Z" fill="white"/>
<path d="M9.80019 23.8003H8.16016V25.4003H9.80019V23.8003Z" fill="white"/>
<path d="M9.80019 22.2007H8.16016V23.8007H9.80019V22.2007Z" fill="white"/>
<path d="M9.80019 20.6001H8.16016V22.2001H9.80019V20.6001Z" fill="white"/>
<path d="M9.80019 19.0405H8.16016V20.6406H9.80019V19.0405Z" fill="white"/>
<path d="M9.80019 17.4399H8.16016V19.04H9.80019V17.4399Z" fill="white"/>
<path d="M9.80019 15.8403H8.16016V17.4404H9.80019V15.8403Z" fill="white"/>
<path d="M9.80019 14.2803H8.16016V15.8803H9.80019V14.2803Z" fill="#DAFF29"/>
<path d="M9.80019 12.6802H8.16016V14.2802H9.80019V12.6802Z" fill="#DAFF29"/>
<path d="M9.80019 11.0801H8.16016V12.6801H9.80019V11.0801Z" fill="#DAFF29"/>
<path d="M9.80019 9.52051H8.16016V11.1205H9.80019V9.52051Z" fill="#DAFF29"/>
<path d="M9.80019 7.91992H8.16016V9.51995H9.80019V7.91992Z" fill="black"/>
<path d="M9.80019 6.36035H8.16016V7.96038H9.80019V6.36035Z" fill="black"/>
<path d="M8.16005 42.8008H6.52002V44.4008H8.16005V42.8008Z" fill="black"/>
<path d="M8.16005 41.2407H6.52002V42.8408H8.16005V41.2407Z" fill="black"/>
<path d="M8.16005 39.6406H6.52002V41.2407H8.16005V39.6406Z" fill="#DAFF29"/>
<path d="M8.16005 38.041H6.52002V39.641H8.16005V38.041Z" fill="#DAFF29"/>
<path d="M8.16005 36.4805H6.52002V38.0805H8.16005V36.4805Z" fill="#DAFF29"/>
<path d="M8.16005 34.8809H6.52002V36.4809H8.16005V34.8809Z" fill="#DAFF29"/>
<path d="M8.16005 33.2803H6.52002V34.8803H8.16005V33.2803Z" fill="white"/>
<path d="M8.16005 31.7207H6.52002V33.3207H8.16005V31.7207Z" fill="white"/>
<path d="M8.16005 30.1206H6.52002V31.7206H8.16005V30.1206Z" fill="white"/>
<path d="M8.16005 28.5205H6.52002V30.1205H8.16005V28.5205Z" fill="white"/>
<path d="M8.16005 26.9604H6.52002V28.5605H8.16005V26.9604Z" fill="white"/>
<path d="M8.16005 25.3604H6.52002V26.9604H8.16005V25.3604Z" fill="white"/>
<path d="M8.16005 23.8003H6.52002V25.4003H8.16005V23.8003Z" fill="white"/>
<path d="M8.16005 22.2007H6.52002V23.8007H8.16005V22.2007Z" fill="white"/>
<path d="M8.16005 20.6001H6.52002V22.2001H8.16005V20.6001Z" fill="white"/>
<path d="M8.16005 19.0405H6.52002V20.6406H8.16005V19.0405Z" fill="white"/>
<path d="M8.16005 17.4399H6.52002V19.04H8.16005V17.4399Z" fill="white"/>
<path d="M8.16005 15.8403H6.52002V17.4404H8.16005V15.8403Z" fill="white"/>
<path d="M8.16005 14.2803H6.52002V15.8803H8.16005V14.2803Z" fill="#DAFF29"/>
<path d="M8.16005 12.6802H6.52002V14.2802H8.16005V12.6802Z" fill="#DAFF29"/>
<path d="M8.16005 11.0801H6.52002V12.6801H8.16005V11.0801Z" fill="#DAFF29"/>
<path d="M8.16005 9.52051H6.52002V11.1205H8.16005V9.52051Z" fill="#DAFF29"/>
<path d="M8.16005 7.91992H6.52002V9.51995H8.16005V7.91992Z" fill="black"/>
<path d="M8.16005 6.36035H6.52002V7.96038H8.16005V6.36035Z" fill="black"/>
<path d="M6.51991 39.6406H4.87988V41.2407H6.51991V39.6406Z" fill="black"/>
<path d="M6.51991 38.041H4.87988V39.641H6.51991V38.041Z" fill="black"/>
<path d="M6.51991 36.4805H4.87988V38.0805H6.51991V36.4805Z" fill="black"/>
<path d="M6.51991 34.8809H4.87988V36.4809H6.51991V34.8809Z" fill="black"/>
<path d="M6.51991 33.2803H4.87988V34.8803H6.51991V33.2803Z" fill="#DAFF29"/>
<path d="M6.51991 31.7207H4.87988V33.3207H6.51991V31.7207Z" fill="#DAFF29"/>
<path d="M6.51991 30.1206H4.87988V31.7206H6.51991V30.1206Z" fill="#DAFF29"/>
<path d="M6.51991 28.5205H4.87988V30.1205H6.51991V28.5205Z" fill="#DAFF29"/>
<path d="M6.51991 26.9604H4.87988V28.5605H6.51991V26.9604Z" fill="#DAFF29"/>
<path d="M6.51991 25.3604H4.87988V26.9604H6.51991V25.3604Z" fill="#DAFF29"/>
<path d="M6.51991 23.8003H4.87988V25.4003H6.51991V23.8003Z" fill="#DAFF29"/>
<path d="M6.51991 22.2007H4.87988V23.8007H6.51991V22.2007Z" fill="#DAFF29"/>
<path d="M6.51991 20.6001H4.87988V22.2001H6.51991V20.6001Z" fill="#DAFF29"/>
<path d="M6.51991 19.0405H4.87988V20.6406H6.51991V19.0405Z" fill="#DAFF29"/>
<path d="M6.51991 17.4399H4.87988V19.04H6.51991V17.4399Z" fill="#DAFF29"/>
<path d="M6.51991 15.8403H4.87988V17.4404H6.51991V15.8403Z" fill="#DAFF29"/>
<path d="M6.51991 14.2803H4.87988V15.8803H6.51991V14.2803Z" fill="black"/>
<path d="M6.51991 12.6802H4.87988V14.2802H6.51991V12.6802Z" fill="black"/>
<path d="M6.51991 11.0801H4.87988V12.6801H6.51991V11.0801Z" fill="black"/>
<path d="M6.51991 9.52051H4.87988V11.1205H6.51991V9.52051Z" fill="black"/>
<path d="M4.92006 39.6406H3.28003V41.2407H4.92006V39.6406Z" fill="black"/>
<path d="M4.92006 38.041H3.28003V39.641H4.92006V38.041Z" fill="black"/>
<path d="M4.92006 36.4805H3.28003V38.0805H4.92006V36.4805Z" fill="black"/>
<path d="M4.92006 34.8809H3.28003V36.4809H4.92006V34.8809Z" fill="black"/>
<path d="M4.92006 33.2803H3.28003V34.8803H4.92006V33.2803Z" fill="#DAFF29"/>
<path d="M4.92006 31.7207H3.28003V33.3207H4.92006V31.7207Z" fill="#DAFF29"/>
<path d="M4.92006 30.1206H3.28003V31.7206H4.92006V30.1206Z" fill="#DAFF29"/>
<path d="M4.92006 28.5205H3.28003V30.1205H4.92006V28.5205Z" fill="#DAFF29"/>
<path d="M4.92006 26.9604H3.28003V28.5605H4.92006V26.9604Z" fill="#DAFF29"/>
<path d="M4.92006 25.3604H3.28003V26.9604H4.92006V25.3604Z" fill="#DAFF29"/>
<path d="M4.92006 23.8003H3.28003V25.4003H4.92006V23.8003Z" fill="#DAFF29"/>
<path d="M4.92006 22.2007H3.28003V23.8007H4.92006V22.2007Z" fill="#DAFF29"/>
<path d="M4.92006 20.6001H3.28003V22.2001H4.92006V20.6001Z" fill="#DAFF29"/>
<path d="M4.92006 19.0405H3.28003V20.6406H4.92006V19.0405Z" fill="#DAFF29"/>
<path d="M4.92006 17.4399H3.28003V19.04H4.92006V17.4399Z" fill="#DAFF29"/>
<path d="M4.92006 15.8403H3.28003V17.4404H4.92006V15.8403Z" fill="#DAFF29"/>
<path d="M4.92006 14.2803H3.28003V15.8803H4.92006V14.2803Z" fill="black"/>
<path d="M4.92006 12.6802H3.28003V14.2802H4.92006V12.6802Z" fill="black"/>
<path d="M4.92006 11.0801H3.28003V12.6801H4.92006V11.0801Z" fill="black"/>
<path d="M4.92006 9.52051H3.28003V11.1205H4.92006V9.52051Z" fill="black"/>
<path d="M3.27992 33.2803H1.63989V34.8803H3.27992V33.2803Z" fill="black"/>
<path d="M3.27992 31.7207H1.63989V33.3207H3.27992V31.7207Z" fill="black"/>
<path d="M3.27992 30.1206H1.63989V31.7206H3.27992V30.1206Z" fill="black"/>
<path d="M3.27992 28.5205H1.63989V30.1205H3.27992V28.5205Z" fill="black"/>
<path d="M3.27992 26.9604H1.63989V28.5605H3.27992V26.9604Z" fill="black"/>
<path d="M3.27992 25.3604H1.63989V26.9604H3.27992V25.3604Z" fill="black"/>
<path d="M3.27992 23.8003H1.63989V25.4003H3.27992V23.8003Z" fill="black"/>
<path d="M3.27992 22.2007H1.63989V23.8007H3.27992V22.2007Z" fill="black"/>
<path d="M3.27992 20.6001H1.63989V22.2001H3.27992V20.6001Z" fill="black"/>
<path d="M3.27992 19.0405H1.63989V20.6406H3.27992V19.0405Z" fill="black"/>
<path d="M3.27992 17.4399H1.63989V19.04H3.27992V17.4399Z" fill="black"/>
<path d="M3.27992 15.8403H1.63989V17.4404H3.27992V15.8403Z" fill="black"/>
<path d="M1.64003 33.2803H0V34.8803H1.64003V33.2803Z" fill="black"/>
<path d="M1.64003 31.7207H0V33.3207H1.64003V31.7207Z" fill="black"/>
<path d="M1.64003 30.1206H0V31.7206H1.64003V30.1206Z" fill="black"/>
<path d="M1.64003 28.5205H0V30.1205H1.64003V28.5205Z" fill="black"/>
<path d="M1.64003 26.9604H0V28.5605H1.64003V26.9604Z" fill="black"/>
<path d="M1.64003 25.3604H0V26.9604H1.64003V25.3604Z" fill="black"/>
<path d="M1.64003 23.8003H0V25.4003H1.64003V23.8003Z" fill="black"/>
<path d="M1.64003 22.2007H0V23.8007H1.64003V22.2007Z" fill="black"/>
<path d="M1.64003 20.6001H0V22.2001H1.64003V20.6001Z" fill="black"/>
<path d="M1.64003 19.0405H0V20.6406H1.64003V19.0405Z" fill="black"/>
<path d="M1.64003 17.4399H0V19.04H1.64003V17.4399Z" fill="black"/>
<path d="M1.64003 15.8403H0V17.4404H1.64003V15.8403Z" fill="black"/>
<path d="M31.6702 31.5037H33.2202V29.9537H34.7702V20.6537H33.2202V19.1037H31.6702V17.5537H28.5702H27.0202H17.7202V33.0537H31.6702V31.5037ZM27.0202 22.2037H28.5702V28.4037H27.0202V29.9537H23.9202V20.6537H27.0202V22.2037Z" fill="black"/>
</svg>
